<svg width="128" height="128" viewBox="0 0 128 128" fill="none" xmlns="http://www.w3.org/2000/svg">
<g clip-path="url(#clip0_489_103)">
<rect width="128" height="128" fill="#BE9C90"/>
<g filter="url(#filter0_d_489_103)">
<g filter="url(#filter1_d_489_103)">
<path d="M78 41.0032H126V47.0032H78V41.0032Z" fill="#2E4152"/>
</g>
<g filter="url(#filter2_d_489_103)">
<path d="M2 41.0032H50V47.0032H2V41.0032Z" fill="#2E4152"/>
</g>
<g filter="url(#filter3_d_489_103)">
<path d="M66 29.0032H63V40.0032H66V34.2137V29.0032Z" fill="#2E4152"/>
</g>
<g filter="url(#filter4_d_489_103)">
<path d="M77 52.0032C77 48.8206 75.683 45.7683 73.3388 43.5179C70.9946 41.2675 67.8152 40.0032 64.5 40.0032C61.1848 40.0032 58.0054 41.2675 55.6612 43.5179C53.317 45.7683 52 48.8206 52 52.0032L58.7636 52.0032C58.7636 50.5426 59.368 49.1419 60.4438 48.1092C61.5195 47.0764 62.9786 46.4962 64.5 46.4962C66.0214 46.4962 67.4805 47.0764 68.5562 48.1092C69.632 49.1419 70.2364 50.5426 70.2364 52.0032H77Z" fill="#2E4152"/>
</g>
<g filter="url(#filter5_d_489_103)">
<path d="M63.9302 31.502C65.6481 31.533 67.2572 31.2982 68.7174 30.3523C70.1776 29.4063 71.3452 28.0414 72.08 26.4215C72.8147 24.8017 73.0853 22.9959 72.8591 21.2211C72.633 19.4463 71.9198 17.7781 70.8052 16.4171C69.6906 15.056 68.2221 14.06 66.5762 13.5487C64.9303 13.0374 63.1771 13.0327 61.5272 13.535C59.8773 14.0373 58.401 15.0253 57.2757 16.3803C56.1505 17.7352 55.2405 19.7994 55.0004 21.5729L57.6951 21.5385C57.867 20.2692 58.3868 19.0781 59.1922 18.1083C59.9975 17.1386 61.0541 16.4315 62.2349 16.072C63.4158 15.7125 64.6706 15.7159 65.8485 16.0818C67.0265 16.4477 68.0775 17.1606 68.8752 18.1347C69.6729 19.1088 70.1833 20.3027 70.3451 21.5729C70.507 22.8431 70.3134 24.1355 69.7875 25.2948C69.2617 26.4542 68.426 27.431 67.3809 28.108C66.3359 28.7851 65.1597 29.0242 63.9302 29.002L63.9302 31.502Z" fill="#2E4152"/>
</g>
</g>
<path d="M4.244 82.17C3.94933 82.17 3.71133 82.136 3.53 82.068C3.34867 82.0227 3.258 81.932 3.258 81.796C3.258 81.524 3.632 81.32 4.38 81.184C5.24133 81.0253 5.876 80.7647 6.284 80.402C6.692 80.0393 6.896 79.45 6.896 78.634V63.334C6.896 62.518 6.726 61.94 6.386 61.6C6.06867 61.26 5.47933 61.0107 4.618 60.852C4.23267 60.784 3.94933 60.6933 3.768 60.58C3.58667 60.4667 3.496 60.3307 3.496 60.172C3.496 60.036 3.58667 59.9453 3.768 59.9C3.94933 59.832 4.18733 59.798 4.482 59.798C5.34333 59.798 6.06867 59.8093 6.658 59.832C7.27 59.8547 7.85933 59.8773 8.426 59.9C9.01533 59.9 9.70667 59.9 10.5 59.9C11.248 59.9 12.03 59.9 12.846 59.9C13.6847 59.8773 14.4553 59.866 15.158 59.866C15.9287 59.8433 16.5747 59.832 17.096 59.832C17.64 59.8093 17.9573 59.798 18.048 59.798C18.1613 59.798 18.286 59.8207 18.422 59.866C18.558 59.9113 18.6373 59.9907 18.66 60.104C18.7733 60.7387 18.8867 61.3733 19 62.008C19.1133 62.62 19.17 63.1527 19.17 63.606C19.17 63.81 19.1133 63.946 19 64.014C18.9093 64.082 18.8073 64.116 18.694 64.116C18.5807 64.116 18.5013 64.0933 18.456 64.048C18.4107 63.98 18.3653 63.8893 18.32 63.776C18.2067 63.3907 18.0933 63.028 17.98 62.688C17.8667 62.3253 17.7307 62.0647 17.572 61.906C17.2547 61.5433 16.9033 61.3053 16.518 61.192C16.1327 61.056 15.7247 60.988 15.294 60.988H10.84C10.6587 60.988 10.4093 61.09 10.092 61.294C9.77467 61.498 9.616 61.7587 9.616 62.076V69.284C9.616 69.488 9.67267 69.6693 9.786 69.828C9.922 69.964 10.0693 70.032 10.228 70.032H13.594C14.2513 70.032 14.7047 69.9187 14.954 69.692C15.2033 69.4427 15.4073 69.0007 15.566 68.366C15.702 67.8673 15.906 67.618 16.178 67.618C16.2687 67.618 16.3593 67.6633 16.45 67.754C16.5633 67.8447 16.62 67.9807 16.62 68.162C16.62 68.2527 16.6087 68.4567 16.586 68.774C16.586 69.0913 16.5747 69.42 16.552 69.76C16.5293 70.1 16.518 70.3607 16.518 70.542C16.518 70.7687 16.518 71.0747 16.518 71.46C16.5407 71.8227 16.552 72.174 16.552 72.514C16.5747 72.854 16.586 73.0693 16.586 73.16C16.586 73.3187 16.5633 73.4547 16.518 73.568C16.4953 73.6813 16.416 73.738 16.28 73.738C15.94 73.738 15.6793 73.3753 15.498 72.65C15.362 72.1287 15.1807 71.7433 14.954 71.494C14.7273 71.2447 14.3873 71.12 13.934 71.12H10.772C10.3867 71.12 10.092 71.1767 9.888 71.29C9.70667 71.3807 9.616 71.6187 9.616 72.004V78.532C9.616 79.3933 9.79733 79.994 10.16 80.334C10.5227 80.6513 11.0893 80.81 11.86 80.81H14.376C15.1013 80.81 15.702 80.776 16.178 80.708C16.6767 80.6173 17.1073 80.4587 17.47 80.232C17.8327 79.9827 18.15 79.654 18.422 79.246C18.7167 78.838 19.0453 78.294 19.408 77.614C19.476 77.478 19.5553 77.3647 19.646 77.274C19.7367 77.1833 19.8387 77.1493 19.952 77.172C20.0653 77.1947 20.156 77.2513 20.224 77.342C20.292 77.41 20.326 77.512 20.326 77.648C20.326 77.852 20.2693 78.2147 20.156 78.736C20.0427 79.2347 19.8953 79.756 19.714 80.3C19.5553 80.844 19.408 81.2747 19.272 81.592C19.204 81.7507 19.136 81.8867 19.068 82C19.0227 82.1133 18.932 82.17 18.796 82.17C17.708 82.17 16.6993 82.1587 15.77 82.136C14.8407 82.1133 13.9567 82.0907 13.118 82.068C12.2793 82.0453 11.452 82.0227 10.636 82C9.84267 81.9773 9.01533 81.966 8.154 81.966C7.65533 81.966 7.22467 81.9773 6.862 82C6.49933 82.0453 6.12533 82.0793 5.74 82.102C5.35467 82.1473 4.856 82.17 4.244 82.17ZM26.7554 82.13C26.5301 82.13 26.3481 82.104 26.2094 82.052C26.0707 82.0173 26.0014 81.948 26.0014 81.844C26.0014 81.7227 26.0707 81.6273 26.2094 81.558C26.3481 81.4887 26.5647 81.428 26.8594 81.376C27.5181 81.2547 28.0207 81.0467 28.3674 80.752C28.7141 80.44 28.8874 79.972 28.8874 79.348V69.26C28.8874 68.4627 28.8701 67.856 28.8354 67.44C28.8007 67.0067 28.7401 66.7033 28.6534 66.53C28.5841 66.3567 28.4801 66.2613 28.3414 66.244C28.0987 66.192 27.8387 66.166 27.5614 66.166C27.3014 66.1487 26.9461 66.14 26.4954 66.14H25.2734C24.8574 66.14 24.4414 66.2267 24.0254 66.4C23.6267 66.556 23.3321 66.8073 23.1414 67.154C23.0894 67.2407 23.0027 67.3707 22.8814 67.544C22.7601 67.7 22.6301 67.8387 22.4914 67.96C22.3527 68.0813 22.2141 68.142 22.0754 68.142C22.0061 68.142 21.9541 68.1073 21.9194 68.038C21.9021 67.9687 21.8934 67.8907 21.8934 67.804C21.8934 67.6307 21.9367 67.4573 22.0234 67.284C22.2661 66.7813 22.4394 66.3393 22.5434 65.958C22.6647 65.5593 22.7601 65.0913 22.8294 64.554C22.8641 64.2593 22.9247 64.086 23.0114 64.034C23.1154 63.982 23.2021 63.956 23.2714 63.956C23.3407 63.956 23.4447 64.06 23.5834 64.268C23.7394 64.476 23.8521 64.6493 23.9214 64.788C24.0254 64.9613 24.2594 65.0913 24.6234 65.178C25.0047 65.2647 25.3774 65.308 25.7414 65.308H34.8934C35.5001 65.308 35.9941 65.2733 36.3754 65.204C36.7567 65.1347 37.0861 65.0393 37.3634 64.918C37.5714 64.814 37.7361 64.7013 37.8574 64.58C37.9961 64.4587 38.1694 64.398 38.3774 64.398C38.4294 64.398 38.4727 64.4673 38.5074 64.606C38.5421 64.7273 38.5594 64.8573 38.5594 64.996C38.5594 65.0827 38.5421 65.204 38.5074 65.36C38.4901 65.516 38.4727 65.6373 38.4554 65.724C38.4034 66.036 38.3514 66.2613 38.2994 66.4C38.2647 66.5387 38.2387 66.66 38.2214 66.764C38.2041 66.868 38.1954 67.0327 38.1954 67.258V67.57C38.1954 67.726 38.1607 67.908 38.0914 68.116C38.0221 68.3067 37.9181 68.402 37.7794 68.402C37.6581 68.402 37.5627 68.3067 37.4934 68.116C37.4241 67.9253 37.3547 67.6653 37.2854 67.336C37.2161 66.972 37.0081 66.686 36.6614 66.478C36.3147 66.2527 35.7254 66.14 34.8934 66.14H32.2674C31.8861 66.14 31.6001 66.192 31.4094 66.296C31.2187 66.4 31.0974 66.66 31.0454 67.076C30.9934 67.492 30.9674 68.1767 30.9674 69.13V79.348C30.9674 79.972 31.1494 80.44 31.5134 80.752C31.8774 81.0467 32.3801 81.2547 33.0214 81.376C33.3161 81.428 33.5327 81.4887 33.6714 81.558C33.8101 81.6273 33.8794 81.7227 33.8794 81.844C33.8794 81.948 33.8101 82.0173 33.6714 82.052C33.5327 82.104 33.3507 82.13 33.1254 82.13C32.6574 82.13 32.2674 82.1127 31.9554 82.078C31.6607 82.0607 31.3747 82.0433 31.0974 82.026C30.8201 82.0087 30.4821 82 30.0834 82C29.6501 82 29.2687 82.0087 28.9394 82.026C28.6274 82.0433 28.2981 82.0607 27.9514 82.078C27.6221 82.1127 27.2234 82.13 26.7554 82.13ZM40.3254 82.13C40.1 82.13 39.918 82.104 39.7794 82.052C39.6407 82.0173 39.5714 81.948 39.5714 81.844C39.5714 81.636 39.8574 81.48 40.4294 81.376C41.088 81.2547 41.5734 81.0553 41.8854 80.778C42.1974 80.5007 42.3534 80.05 42.3534 79.426V67.726C42.3534 67.102 42.2234 66.66 41.9634 66.4C41.7207 66.14 41.27 65.9493 40.6114 65.828C40.3167 65.776 40.1 65.7067 39.9614 65.62C39.8227 65.5333 39.7534 65.4293 39.7534 65.308C39.7534 65.204 39.8227 65.1347 39.9614 65.1C40.1 65.048 40.282 65.022 40.5074 65.022C41.166 65.022 41.7207 65.0307 42.1714 65.048C42.6394 65.0653 43.09 65.0827 43.5234 65.1C43.974 65.1 44.5027 65.1 45.1094 65.1C45.6814 65.1 46.2794 65.1 46.9034 65.1C47.5447 65.0827 48.134 65.074 48.6714 65.074C49.2607 65.0567 49.7547 65.048 50.1534 65.048C50.5694 65.0307 50.812 65.022 50.8814 65.022C50.968 65.022 51.0634 65.0393 51.1674 65.074C51.2714 65.1087 51.332 65.1693 51.3494 65.256C51.436 65.7413 51.5227 66.2267 51.6094 66.712C51.696 67.18 51.7394 67.5873 51.7394 67.934C51.7394 68.09 51.696 68.194 51.6094 68.246C51.54 68.298 51.462 68.324 51.3754 68.324C51.2887 68.324 51.228 68.3067 51.1934 68.272C51.1587 68.22 51.124 68.1507 51.0894 68.064C51.0027 67.7693 50.916 67.492 50.8294 67.232C50.7427 66.9547 50.6387 66.7553 50.5174 66.634C50.2747 66.3567 50.006 66.1747 49.7114 66.088C49.4167 65.984 49.1047 65.932 48.7754 65.932H45.3694C45.2307 65.932 45.04 66.01 44.7974 66.166C44.5547 66.322 44.4334 66.5213 44.4334 66.764V72.276C44.4334 72.432 44.4767 72.5707 44.5634 72.692C44.6674 72.796 44.78 72.848 44.9014 72.848H47.4754C47.978 72.848 48.3247 72.7613 48.5154 72.588C48.706 72.3973 48.862 72.0593 48.9834 71.574C49.0874 71.1927 49.2434 71.002 49.4514 71.002C49.5207 71.002 49.59 71.0367 49.6594 71.106C49.746 71.1753 49.7894 71.2793 49.7894 71.418C49.7894 71.4873 49.7807 71.6433 49.7634 71.886C49.7634 72.1287 49.7547 72.38 49.7374 72.64C49.72 72.9 49.7114 73.0993 49.7114 73.238C49.7114 73.4113 49.7114 73.6453 49.7114 73.94C49.7287 74.2173 49.7374 74.486 49.7374 74.746C49.7547 75.006 49.7634 75.1707 49.7634 75.24C49.7634 75.3613 49.746 75.4653 49.7114 75.552C49.694 75.6387 49.6334 75.682 49.5294 75.682C49.2694 75.682 49.07 75.4047 48.9314 74.85C48.8274 74.4513 48.6887 74.1567 48.5154 73.966C48.342 73.7753 48.082 73.68 47.7354 73.68H45.3174C45.0227 73.68 44.7974 73.7233 44.6414 73.81C44.5027 73.8793 44.4334 74.0613 44.4334 74.356V79.348C44.4334 80.0067 44.572 80.466 44.8494 80.726C45.1267 80.9687 45.56 81.09 46.1494 81.09H48.0734C48.628 81.09 49.0874 81.064 49.4514 81.012C49.8327 80.9427 50.162 80.8213 50.4394 80.648C50.7167 80.4573 50.9594 80.206 51.1674 79.894C51.3927 79.582 51.644 79.166 51.9214 78.646C51.9734 78.542 52.034 78.4553 52.1034 78.386C52.1727 78.3167 52.2507 78.2907 52.3374 78.308C52.424 78.3253 52.4934 78.3687 52.5454 78.438C52.5974 78.49 52.6234 78.568 52.6234 78.672C52.6234 78.828 52.58 79.1053 52.4934 79.504C52.4067 79.8853 52.294 80.284 52.1554 80.7C52.034 81.116 51.9214 81.4453 51.8174 81.688C51.7654 81.8093 51.7134 81.9133 51.6614 82C51.6267 82.0867 51.5574 82.13 51.4534 82.13C50.6214 82.13 49.85 82.1213 49.1394 82.104C48.4287 82.0867 47.7527 82.0693 47.1114 82.052C46.47 82.0347 45.8374 82.0173 45.2134 82C44.6067 81.9827 43.974 81.974 43.3154 81.974C42.934 81.974 42.6047 81.9827 42.3274 82C42.05 82.0347 41.764 82.0607 41.4694 82.078C41.1747 82.1127 40.7934 82.13 40.3254 82.13ZM69.8472 82.546C69.3618 82.546 68.9025 82.5027 68.4692 82.416C68.0358 82.3467 67.6372 82.208 67.2732 82C66.9092 81.792 66.5712 81.506 66.2592 81.142C65.8432 80.622 65.4445 80.128 65.0632 79.66C64.6818 79.1747 64.2745 78.62 63.8412 77.996C63.4252 77.372 62.9138 76.5747 62.3072 75.604C62.0472 75.1707 61.6745 74.8327 61.1892 74.59C60.8078 74.3993 60.4265 74.2693 60.0452 74.2C59.6812 74.1133 59.3778 74.0613 59.1352 74.044C58.9965 74.0267 58.8925 74.07 58.8232 74.174C58.7712 74.278 58.7452 74.408 58.7452 74.564V79.14C58.7452 79.6947 58.8752 80.18 59.1352 80.596C59.3952 80.9947 59.8458 81.2547 60.4872 81.376C60.7818 81.428 60.9985 81.4887 61.1372 81.558C61.2758 81.6273 61.3452 81.7227 61.3452 81.844C61.3452 81.948 61.2758 82.0173 61.1372 82.052C60.9985 82.104 60.8165 82.13 60.5912 82.13C60.1232 82.13 59.7592 82.1127 59.4992 82.078C59.2565 82.0433 59.0312 82.0173 58.8232 82C58.6325 81.9653 58.3725 81.948 58.0432 81.948C57.6098 81.948 57.2198 81.9653 56.8732 82C56.5438 82.0173 56.2058 82.0433 55.8592 82.078C55.5298 82.1127 55.1312 82.13 54.6632 82.13C54.4378 82.13 54.2558 82.104 54.1172 82.052C53.9785 82.0173 53.9092 81.948 53.9092 81.844C53.9092 81.636 54.1952 81.48 54.7672 81.376C55.4258 81.2547 55.9025 81.0553 56.1972 80.778C56.5092 80.5007 56.6652 80.0413 56.6652 79.4V68.324C56.6652 67.6653 56.6305 67.1713 56.5612 66.842C56.5092 66.4953 56.3705 66.2527 56.1452 66.114C55.9372 65.9753 55.5818 65.88 55.0792 65.828C54.7845 65.7933 54.5678 65.7327 54.4292 65.646C54.2905 65.542 54.2212 65.4293 54.2212 65.308C54.2212 65.204 54.2905 65.1347 54.4292 65.1C54.5678 65.048 54.7498 65.022 54.9752 65.022C55.4432 65.022 55.7898 65.022 56.0152 65.022C56.2578 65.022 56.4832 65.0307 56.6912 65.048C56.8992 65.048 57.1765 65.048 57.5232 65.048C57.8525 65.048 58.1472 65.0393 58.4072 65.022C58.6672 64.9873 58.9532 64.9613 59.2652 64.944C59.5945 64.9267 60.0105 64.918 60.5132 64.918C62.4198 64.918 63.8672 65.2733 64.8552 65.984C65.8605 66.6947 66.3632 67.7607 66.3632 69.182C66.3632 69.962 66.2072 70.638 65.8952 71.21C65.5832 71.7647 65.1932 72.2327 64.7252 72.614C64.2572 72.9953 63.7805 73.3073 63.2952 73.55C63.2258 73.5673 63.1912 73.6107 63.1912 73.68C63.2085 73.732 63.2432 73.8013 63.2952 73.888C63.8325 74.7027 64.3438 75.474 64.8292 76.202C65.3318 76.93 65.8778 77.6407 66.4672 78.334C67.0565 79.0273 67.7585 79.7467 68.5732 80.492C69.0238 80.8907 69.4832 81.1333 69.9512 81.22C70.4192 81.3067 70.9565 81.35 71.5632 81.35C71.8232 81.35 71.9532 81.4453 71.9532 81.636C71.9532 81.896 71.8232 82.0867 71.5632 82.208C71.3032 82.3467 71.0085 82.4333 70.6792 82.468C70.3498 82.52 70.0725 82.546 69.8472 82.546ZM60.1232 73.446C60.9205 73.446 61.6052 73.264 62.1772 72.9C62.7665 72.536 63.2172 72.0593 63.5292 71.47C63.8585 70.8807 64.0232 70.2567 64.0232 69.598C64.0232 68.8873 63.9278 68.2373 63.7372 67.648C63.5638 67.0587 63.1998 66.5907 62.6452 66.244C62.1078 65.88 61.2932 65.698 60.2012 65.698C59.6465 65.698 59.2825 65.88 59.1092 66.244C58.9358 66.5907 58.8318 67.2147 58.7972 68.116C58.7798 68.5493 58.7625 69.1387 58.7452 69.884C58.7452 70.612 58.7452 71.496 58.7452 72.536C58.7452 72.9693 58.8665 73.2293 59.1092 73.316C59.3518 73.4027 59.6898 73.446 60.1232 73.446ZM89.1883 82.442C89.0323 82.442 88.7203 82.312 88.2523 82.052C87.8016 81.792 87.3683 81.376 86.9523 80.804C86.883 80.7173 86.6663 80.4573 86.3023 80.024C85.9556 79.5907 85.505 79.0533 84.9503 78.412C84.413 77.7533 83.8236 77.0427 83.1823 76.28C82.541 75.5173 81.8996 74.7547 81.2583 73.992C80.617 73.2293 80.019 72.5273 79.4643 71.886C78.9096 71.2273 78.4416 70.6813 78.0603 70.248C77.6963 69.7973 77.471 69.52 77.3843 69.416C77.263 69.26 77.159 69.156 77.0723 69.104C76.9856 69.0347 76.9076 69 76.8383 69C76.7516 69 76.691 69.0693 76.6563 69.208C76.6216 69.3293 76.6043 69.442 76.6043 69.546C76.587 70.3953 76.5696 71.3747 76.5523 72.484C76.535 73.5933 76.5176 74.7373 76.5003 75.916C76.483 77.0947 76.4743 78.2213 76.4743 79.296C76.4743 79.764 76.587 80.1973 76.8123 80.596C77.055 80.9947 77.497 81.2547 78.1383 81.376C78.433 81.428 78.6496 81.4887 78.7883 81.558C78.927 81.6273 78.9963 81.7227 78.9963 81.844C78.9963 81.948 78.927 82.0173 78.7883 82.052C78.6496 82.104 78.4676 82.13 78.2423 82.13C77.7743 82.13 77.419 82.1127 77.1763 82.078C76.951 82.0607 76.743 82.0433 76.5523 82.026C76.379 82.0087 76.1276 82 75.7983 82C75.4863 82 75.2436 82.0087 75.0703 82.026C74.897 82.0433 74.6976 82.0607 74.4723 82.078C74.247 82.1127 73.9003 82.13 73.4323 82.13C73.207 82.13 73.025 82.104 72.8863 82.052C72.7476 82.0173 72.6783 81.948 72.6783 81.844C72.6783 81.7227 72.7476 81.6273 72.8863 81.558C73.025 81.4887 73.2416 81.4193 73.5363 81.35C74.039 81.2113 74.403 80.96 74.6283 80.596C74.8536 80.2147 74.9923 79.7553 75.0443 79.218C75.1136 78.5593 75.183 77.6927 75.2523 76.618C75.3216 75.526 75.3823 74.3127 75.4343 72.978C75.4863 71.626 75.5123 70.2393 75.5123 68.818C75.5123 67.8993 75.2696 67.2407 74.7843 66.842C74.3163 66.4433 73.701 66.1227 72.9383 65.88C72.869 65.8453 72.713 65.776 72.4703 65.672C72.245 65.5507 72.1323 65.412 72.1323 65.256C72.1323 65.1 72.2103 65.0047 72.3663 64.97C72.5223 64.918 72.6436 64.892 72.7303 64.892C73.233 64.9093 73.6403 64.9267 73.9523 64.944C74.2643 64.944 74.5416 64.9527 74.7843 64.97C75.027 64.9873 75.2956 65.0047 75.5903 65.022C75.885 65.022 76.2663 65.022 76.7343 65.022C76.8903 65.022 77.0116 65.0653 77.0983 65.152C77.185 65.2387 77.2716 65.3427 77.3583 65.464C77.4276 65.568 77.653 65.8627 78.0343 66.348C78.433 66.816 78.9183 67.414 79.4903 68.142C80.0796 68.8527 80.721 69.6327 81.4143 70.482C82.1076 71.314 82.801 72.1547 83.4943 73.004C84.1876 73.836 84.829 74.616 85.4183 75.344C86.0076 76.0547 86.493 76.644 86.8743 77.112C87.273 77.58 87.507 77.8573 87.5763 77.944C87.6456 78.0133 87.741 78.1173 87.8623 78.256C88.001 78.3947 88.1223 78.464 88.2263 78.464C88.3823 78.464 88.469 78.282 88.4863 77.918C88.4863 77.6753 88.4863 77.216 88.4863 76.54C88.5036 75.8467 88.5123 75.0147 88.5123 74.044C88.5296 73.056 88.5383 71.99 88.5383 70.846C88.5383 69.702 88.5383 68.532 88.5383 67.336C88.521 66.9893 88.339 66.6773 87.9923 66.4C87.6456 66.1227 87.325 65.958 87.0303 65.906C86.7356 65.854 86.467 65.7847 86.2243 65.698C85.9816 65.6113 85.8603 65.5073 85.8603 65.386C85.8603 65.282 85.9816 65.2127 86.2243 65.178C86.467 65.126 86.701 65.1 86.9263 65.1C87.0996 65.1 87.2643 65.1 87.4203 65.1C87.5936 65.1 87.7583 65.1 87.9143 65.1C88.0876 65.1 88.2523 65.1 88.4083 65.1C88.8243 65.1 89.1536 65.1 89.3963 65.1C89.639 65.0827 89.899 65.0653 90.1763 65.048C90.471 65.0307 90.8783 65.022 91.3983 65.022C91.6236 65.022 91.8056 65.048 91.9443 65.1C92.083 65.1347 92.1523 65.204 92.1523 65.308C92.1523 65.5507 91.8663 65.724 91.2943 65.828C90.653 65.9493 90.2283 66.1053 90.0203 66.296C89.8123 66.4867 89.691 66.7987 89.6563 67.232C89.6563 67.3187 89.6476 67.6567 89.6303 68.246C89.6303 68.8353 89.6303 69.5807 89.6303 70.482C89.6303 71.3833 89.6216 72.354 89.6043 73.394C89.6043 74.434 89.6043 75.474 89.6043 76.514C89.6043 77.5367 89.6043 78.4553 89.6043 79.27C89.6043 79.686 89.613 80.0673 89.6303 80.414C89.665 80.7433 89.691 81.0293 89.7083 81.272C89.7256 81.4973 89.7343 81.6707 89.7343 81.792C89.7343 82.0693 89.6736 82.2427 89.5523 82.312C89.4483 82.3987 89.327 82.442 89.1883 82.442ZM93.1141 82.13C92.8888 82.13 92.7068 82.0953 92.5681 82.026C92.4294 81.974 92.3601 81.896 92.3601 81.792C92.3601 81.6707 92.4294 81.5667 92.5681 81.48C92.7241 81.376 92.9408 81.2807 93.2181 81.194C93.6688 81.0553 94.0848 80.8473 94.4661 80.57C94.8474 80.2927 95.1768 79.8333 95.4541 79.192C95.9394 78.0827 96.3814 77.0427 96.7801 76.072C97.1961 75.1013 97.5861 74.148 97.9501 73.212C98.3141 72.276 98.6868 71.3053 99.0681 70.3C99.4668 69.2773 99.8828 68.168 100.316 66.972C100.403 66.7293 100.481 66.4867 100.55 66.244C100.619 66.0013 100.663 65.7413 100.68 65.464C100.836 65.412 100.992 65.36 101.148 65.308C101.304 65.256 101.46 65.178 101.616 65.074C101.772 64.97 101.876 64.814 101.928 64.606C101.997 64.398 102.058 64.2593 102.11 64.19C102.127 64.1727 102.145 64.164 102.162 64.164C102.197 64.164 102.223 64.1813 102.24 64.216C102.275 64.2853 102.301 64.372 102.318 64.476C102.353 64.58 102.387 64.684 102.422 64.788C102.838 66.1053 103.271 67.4487 103.722 68.818C104.173 70.1873 104.606 71.5133 105.022 72.796C105.455 74.0613 105.845 75.2053 106.192 76.228C106.556 77.2333 106.842 78.048 107.05 78.672C107.293 79.3653 107.553 79.8853 107.83 80.232C108.107 80.5787 108.393 80.8213 108.688 80.96C109 81.0987 109.329 81.2027 109.676 81.272C109.971 81.324 110.187 81.4107 110.326 81.532C110.465 81.636 110.534 81.7487 110.534 81.87C110.534 81.974 110.465 82.0433 110.326 82.078C110.187 82.1127 110.005 82.13 109.78 82.13C109.537 82.13 109.208 82.1127 108.792 82.078C108.376 82.0607 107.934 82.0347 107.466 82C106.998 81.9827 106.565 81.974 106.166 81.974C105.837 81.974 105.499 81.974 105.152 81.974C104.805 81.974 104.485 81.9827 104.19 82C103.895 82 103.644 82 103.436 82C103.211 82 103.029 81.974 102.89 81.922C102.751 81.87 102.682 81.792 102.682 81.688C102.682 81.5667 102.769 81.4627 102.942 81.376C103.115 81.2893 103.315 81.2287 103.54 81.194C104.112 81.1073 104.519 80.96 104.762 80.752C105.005 80.544 105.126 80.3013 105.126 80.024C105.126 79.764 105.065 79.3913 104.944 78.906C104.84 78.4033 104.71 77.8747 104.554 77.32C104.398 76.748 104.251 76.2453 104.112 75.812C104.077 75.6733 104.008 75.5953 103.904 75.578C103.817 75.5433 103.653 75.526 103.41 75.526H98.4961C98.4268 75.526 98.3488 75.5607 98.2621 75.63C98.1928 75.682 98.1234 75.8033 98.0541 75.994C98.0021 76.1673 97.9154 76.4447 97.7941 76.826C97.6728 77.19 97.5514 77.58 97.4301 77.996C97.3088 78.412 97.2048 78.7847 97.1181 79.114C97.0314 79.4433 96.9881 79.6513 96.9881 79.738C96.9881 80.1193 97.1354 80.44 97.4301 80.7C97.7248 80.9427 98.0801 81.116 98.4961 81.22C99.0681 81.376 99.3541 81.5493 99.3541 81.74C99.3541 81.844 99.2848 81.922 99.1461 81.974C99.0074 82.0087 98.8254 82.026 98.6001 82.026C98.3748 82.026 98.0454 82.0173 97.6121 82C97.1788 81.9827 96.7194 81.974 96.2341 81.974C95.6621 81.974 95.1074 82 94.5701 82.052C94.0328 82.104 93.5474 82.13 93.1141 82.13ZM99.1981 74.668H103.228C103.471 74.668 103.592 74.6247 103.592 74.538C103.592 74.5033 103.583 74.4687 103.566 74.434C103.566 74.382 103.557 74.33 103.54 74.278L101.512 67.934C101.408 67.622 101.33 67.466 101.278 67.466C101.243 67.466 101.174 67.6133 101.07 67.908L98.7041 74.278C98.6694 74.382 98.6521 74.4513 98.6521 74.486C98.6521 74.5727 98.6954 74.6247 98.7821 74.642C98.8861 74.6593 99.0248 74.668 99.1981 74.668ZM111.844 82.13C111.619 82.13 111.437 82.0953 111.298 82.026C111.177 81.974 111.116 81.9047 111.116 81.818C111.116 81.662 111.194 81.558 111.35 81.506C111.523 81.4367 111.636 81.3933 111.688 81.376C112.364 81.2373 112.884 81.038 113.248 80.778C113.612 80.5007 113.794 80.076 113.794 79.504V67.44C113.794 67.024 113.751 66.7207 113.664 66.53C113.577 66.322 113.421 66.1747 113.196 66.088C112.971 65.984 112.641 65.8973 112.208 65.828C111.636 65.724 111.35 65.5507 111.35 65.308C111.35 65.204 111.419 65.1347 111.558 65.1C111.697 65.048 111.879 65.022 112.104 65.022C112.572 65.022 112.945 65.0307 113.222 65.048C113.517 65.0653 113.794 65.0827 114.054 65.1C114.314 65.1 114.635 65.1 115.016 65.1C115.449 65.1 115.822 65.1 116.134 65.1C116.446 65.0827 116.767 65.0653 117.096 65.048C117.425 65.0307 117.824 65.022 118.292 65.022C118.517 65.022 118.699 65.048 118.838 65.1C118.977 65.1347 119.046 65.204 119.046 65.308C119.046 65.4293 118.977 65.5333 118.838 65.62C118.699 65.7067 118.483 65.776 118.188 65.828C117.547 65.9493 117.001 66.0967 116.55 66.27C116.099 66.426 115.874 66.7553 115.874 67.258V79.504C115.874 80.0413 115.995 80.44 116.238 80.7C116.481 80.96 117.027 81.09 117.876 81.09H121.1C121.568 81.09 121.975 81.0207 122.322 80.882C122.686 80.726 122.955 80.57 123.128 80.414C123.475 80.1193 123.726 79.8593 123.882 79.634C124.055 79.3913 124.255 79.036 124.48 78.568C124.515 78.464 124.584 78.308 124.688 78.1C124.809 77.892 124.931 77.788 125.052 77.788C125.156 77.788 125.234 77.84 125.286 77.944C125.338 78.048 125.364 78.152 125.364 78.256C125.364 78.2733 125.355 78.2993 125.338 78.334C125.338 78.3513 125.338 78.3687 125.338 78.386C125.217 78.8367 125.104 79.244 125 79.608C124.913 79.972 124.835 80.3187 124.766 80.648C124.714 80.9773 124.671 81.324 124.636 81.688C124.619 81.8093 124.584 81.9133 124.532 82C124.497 82.0867 124.411 82.13 124.272 82.13C123.405 82.13 122.573 82.1213 121.776 82.104C120.979 82.0867 120.207 82.0693 119.462 82.052C118.734 82.052 118.032 82.0433 117.356 82.026C116.68 82.0087 116.013 82 115.354 82C114.921 82 114.427 82.0087 113.872 82.026C113.335 82.0433 112.858 82.0607 112.442 82.078C112.043 82.1127 111.844 82.13 111.844 82.13Z" fill="#2E4152"/>
</g>
<defs>
<filter id="filter0_d_489_103" x="-2" y="13.1617" width="132" height="46.8414" filterUnits="userSpaceOnUse" color-interpolation-filters="sRGB">
<feFlood flood-opacity="0" result="BackgroundImageFix"/>
<feColorMatrix in="SourceAlpha" type="matrix" values="0 0 0 0 0 0 0 0 0 0 0 0 0 0 0 0 0 0 127 0" result="hardAlpha"/>
<feOffset dy="4"/>
<feGaussianBlur stdDeviation="2"/>
<feComposite in2="hardAlpha" operator="out"/>
<feColorMatrix type="matrix" values="0 0 0 0 0 0 0 0 0 0 0 0 0 0 0 0 0 0 0.25 0"/>
<feBlend mode="normal" in2="BackgroundImageFix" result="effect1_dropShadow_489_103"/>
<feBlend mode="normal" in="SourceGraphic" in2="effect1_dropShadow_489_103" result="shape"/>
</filter>
<filter id="filter1_d_489_103" x="74" y="41.0032" width="56" height="14" filterUnits="userSpaceOnUse" color-interpolation-filters="sRGB">
<feFlood flood-opacity="0" result="BackgroundImageFix"/>
<feColorMatrix in="SourceAlpha" type="matrix" values="0 0 0 0 0 0 0 0 0 0 0 0 0 0 0 0 0 0 127 0" result="hardAlpha"/>
<feOffset dy="4"/>
<feGaussianBlur stdDeviation="2"/>
<feComposite in2="hardAlpha" operator="out"/>
<feColorMatrix type="matrix" values="0 0 0 0 0 0 0 0 0 0 0 0 0 0 0 0 0 0 0.25 0"/>
<feBlend mode="normal" in2="BackgroundImageFix" result="effect1_dropShadow_489_103"/>
<feBlend mode="normal" in="SourceGraphic" in2="effect1_dropShadow_489_103" result="shape"/>
</filter>
<filter id="filter2_d_489_103" x="-2" y="41.0032" width="56" height="14" filterUnits="userSpaceOnUse" color-interpolation-filters="sRGB">
<feFlood flood-opacity="0" result="BackgroundImageFix"/>
<feColorMatrix in="SourceAlpha" type="matrix" values="0 0 0 0 0 0 0 0 0 0 0 0 0 0 0 0 0 0 127 0" result="hardAlpha"/>
<feOffset dy="4"/>
<feGaussianBlur stdDeviation="2"/>
<feComposite in2="hardAlpha" operator="out"/>
<feColorMatrix type="matrix" values="0 0 0 0 0 0 0 0 0 0 0 0 0 0 0 0 0 0 0.25 0"/>
<feBlend mode="normal" in2="BackgroundImageFix" result="effect1_dropShadow_489_103"/>
<feBlend mode="normal" in="SourceGraphic" in2="effect1_dropShadow_489_103" result="shape"/>
</filter>
<filter id="filter3_d_489_103" x="59" y="29.0032" width="11" height="19" filterUnits="userSpaceOnUse" color-interpolation-filters="sRGB">
<feFlood flood-opacity="0" result="BackgroundImageFix"/>
<feColorMatrix in="SourceAlpha" type="matrix" values="0 0 0 0 0 0 0 0 0 0 0 0 0 0 0 0 0 0 127 0" result="hardAlpha"/>
<feOffset dy="4"/>
<feGaussianBlur stdDeviation="2"/>
<feComposite in2="hardAlpha" operator="out"/>
<feColorMatrix type="matrix" values="0 0 0 0 0 0 0 0 0 0 0 0 0 0 0 0 0 0 0.25 0"/>
<feBlend mode="normal" in2="BackgroundImageFix" result="effect1_dropShadow_489_103"/>
<feBlend mode="normal" in="SourceGraphic" in2="effect1_dropShadow_489_103" result="shape"/>
</filter>
<filter id="filter4_d_489_103" x="48" y="40.0032" width="33" height="20" filterUnits="userSpaceOnUse" color-interpolation-filters="sRGB">
<feFlood flood-opacity="0" result="BackgroundImageFix"/>
<feColorMatrix in="SourceAlpha" type="matrix" values="0 0 0 0 0 0 0 0 0 0 0 0 0 0 0 0 0 0 127 0" result="hardAlpha"/>
<feOffset dy="4"/>
<feGaussianBlur stdDeviation="2"/>
<feComposite in2="hardAlpha" operator="out"/>
<feColorMatrix type="matrix" values="0 0 0 0 0 0 0 0 0 0 0 0 0 0 0 0 0 0 0.25 0"/>
<feBlend mode="normal" in2="BackgroundImageFix" result="effect1_dropShadow_489_103"/>
<feBlend mode="normal" in="SourceGraphic" in2="effect1_dropShadow_489_103" result="shape"/>
</filter>
<filter id="filter5_d_489_103" x="51.0005" y="13.1617" width="25.936" height="26.3429" filterUnits="userSpaceOnUse" color-interpolation-filters="sRGB">
<feFlood flood-opacity="0" result="BackgroundImageFix"/>
<feColorMatrix in="SourceAlpha" type="matrix" values="0 0 0 0 0 0 0 0 0 0 0 0 0 0 0 0 0 0 127 0" result="hardAlpha"/>
<feOffset dy="4"/>
<feGaussianBlur stdDeviation="2"/>
<feComposite in2="hardAlpha" operator="out"/>
<feColorMatrix type="matrix" values="0 0 0 0 0 0 0 0 0 0 0 0 0 0 0 0 0 0 0.25 0"/>
<feBlend mode="normal" in2="BackgroundImageFix" result="effect1_dropShadow_489_103"/>
<feBlend mode="normal" in="SourceGraphic" in2="effect1_dropShadow_489_103" result="shape"/>
</filter>
<clipPath id="clip0_489_103">
<rect width="128" height="128" fill="white"/>
</clipPath>
</defs>
</svg>
