<svg width="1024" height="1024" viewBox="0 0 1024 1024" fill="none" xmlns="http://www.w3.org/2000/svg">
<rect width="1024" height="1024" fill="#BE9C90"/>
<path d="M284.448 543.64C283.339 543.64 282.443 543.512 281.76 543.256C281.077 543.085 280.736 542.744 280.736 542.232C280.736 541.208 282.144 540.44 284.96 539.928C288.203 539.331 290.592 538.349 292.128 536.984C293.664 535.619 294.432 533.4 294.432 530.328V472.728C294.432 469.656 293.792 467.48 292.512 466.2C291.317 464.92 289.099 463.981 285.856 463.384C284.405 463.128 283.339 462.787 282.656 462.36C281.973 461.933 281.632 461.421 281.632 460.824C281.632 460.312 281.973 459.971 282.656 459.8C283.339 459.544 284.235 459.416 285.344 459.416C288.587 459.416 291.317 459.459 293.536 459.544C295.84 459.629 298.059 459.715 300.192 459.8C302.411 459.8 305.013 459.8 308 459.8C310.816 459.8 313.76 459.8 316.832 459.8C319.989 459.715 322.891 459.672 325.536 459.672C328.437 459.587 330.869 459.544 332.832 459.544C334.88 459.459 336.075 459.416 336.416 459.416C336.843 459.416 337.312 459.501 337.824 459.672C338.336 459.843 338.635 460.141 338.72 460.568C339.147 462.957 339.573 465.347 340 467.736C340.427 470.04 340.64 472.045 340.64 473.752C340.64 474.52 340.427 475.032 340 475.288C339.659 475.544 339.275 475.672 338.848 475.672C338.421 475.672 338.123 475.587 337.952 475.416C337.781 475.16 337.611 474.819 337.44 474.392C337.013 472.941 336.587 471.576 336.16 470.296C335.733 468.931 335.221 467.949 334.624 467.352C333.429 465.987 332.107 465.091 330.656 464.664C329.205 464.152 327.669 463.896 326.048 463.896H309.28C308.597 463.896 307.659 464.28 306.464 465.048C305.269 465.816 304.672 466.797 304.672 467.992V495.128C304.672 495.896 304.885 496.579 305.312 497.176C305.824 497.688 306.379 497.944 306.976 497.944H319.648C322.123 497.944 323.829 497.517 324.768 496.664C325.707 495.725 326.475 494.061 327.072 491.672C327.584 489.795 328.352 488.856 329.376 488.856C329.717 488.856 330.059 489.027 330.4 489.368C330.827 489.709 331.04 490.221 331.04 490.904C331.04 491.245 330.997 492.013 330.912 493.208C330.912 494.403 330.869 495.64 330.784 496.92C330.699 498.2 330.656 499.181 330.656 499.864C330.656 500.717 330.656 501.869 330.656 503.32C330.741 504.685 330.784 506.008 330.784 507.288C330.869 508.568 330.912 509.379 330.912 509.72C330.912 510.317 330.827 510.829 330.656 511.256C330.571 511.683 330.272 511.896 329.76 511.896C328.48 511.896 327.499 510.531 326.816 507.8C326.304 505.837 325.621 504.387 324.768 503.448C323.915 502.509 322.635 502.04 320.928 502.04H309.024C307.573 502.04 306.464 502.253 305.696 502.68C305.013 503.021 304.672 503.917 304.672 505.368V529.944C304.672 533.187 305.355 535.448 306.72 536.728C308.085 537.923 310.219 538.52 313.12 538.52H322.592C325.323 538.52 327.584 538.392 329.376 538.136C331.253 537.795 332.875 537.197 334.24 536.344C335.605 535.405 336.8 534.168 337.824 532.632C338.933 531.096 340.171 529.048 341.536 526.488C341.792 525.976 342.091 525.549 342.432 525.208C342.773 524.867 343.157 524.739 343.584 524.824C344.011 524.909 344.352 525.123 344.608 525.464C344.864 525.72 344.992 526.104 344.992 526.616C344.992 527.384 344.779 528.749 344.352 530.712C343.925 532.589 343.371 534.552 342.688 536.6C342.091 538.648 341.536 540.269 341.024 541.464C340.768 542.061 340.512 542.573 340.256 543C340.085 543.427 339.744 543.64 339.232 543.64C335.136 543.64 331.339 543.597 327.84 543.512C324.341 543.427 321.013 543.341 317.856 543.256C314.699 543.171 311.584 543.085 308.512 543C305.525 542.915 302.411 542.872 299.168 542.872C297.291 542.872 295.669 542.915 294.304 543C292.939 543.171 291.531 543.299 290.08 543.384C288.629 543.555 286.752 543.64 284.448 543.64ZM371.79 543.55C370.837 543.55 370.067 543.44 369.48 543.22C368.893 543.073 368.6 542.78 368.6 542.34C368.6 541.827 368.893 541.423 369.48 541.13C370.067 540.837 370.983 540.58 372.23 540.36C375.017 539.847 377.143 538.967 378.61 537.72C380.077 536.4 380.81 534.42 380.81 531.78V489.1C380.81 485.727 380.737 483.16 380.59 481.4C380.443 479.567 380.187 478.283 379.82 477.55C379.527 476.817 379.087 476.413 378.5 476.34C377.473 476.12 376.373 476.01 375.2 476.01C374.1 475.937 372.597 475.9 370.69 475.9H365.52C363.76 475.9 362 476.267 360.24 477C358.553 477.66 357.307 478.723 356.5 480.19C356.28 480.557 355.913 481.107 355.4 481.84C354.887 482.5 354.337 483.087 353.75 483.6C353.163 484.113 352.577 484.37 351.99 484.37C351.697 484.37 351.477 484.223 351.33 483.93C351.257 483.637 351.22 483.307 351.22 482.94C351.22 482.207 351.403 481.473 351.77 480.74C352.797 478.613 353.53 476.743 353.97 475.13C354.483 473.443 354.887 471.463 355.18 469.19C355.327 467.943 355.583 467.21 355.95 466.99C356.39 466.77 356.757 466.66 357.05 466.66C357.343 466.66 357.783 467.1 358.37 467.98C359.03 468.86 359.507 469.593 359.8 470.18C360.24 470.913 361.23 471.463 362.77 471.83C364.383 472.197 365.96 472.38 367.5 472.38H406.22C408.787 472.38 410.877 472.233 412.49 471.94C414.103 471.647 415.497 471.243 416.67 470.73C417.55 470.29 418.247 469.813 418.76 469.3C419.347 468.787 420.08 468.53 420.96 468.53C421.18 468.53 421.363 468.823 421.51 469.41C421.657 469.923 421.73 470.473 421.73 471.06C421.73 471.427 421.657 471.94 421.51 472.6C421.437 473.26 421.363 473.773 421.29 474.14C421.07 475.46 420.85 476.413 420.63 477C420.483 477.587 420.373 478.1 420.3 478.54C420.227 478.98 420.19 479.677 420.19 480.63V481.95C420.19 482.61 420.043 483.38 419.75 484.26C419.457 485.067 419.017 485.47 418.43 485.47C417.917 485.47 417.513 485.067 417.22 484.26C416.927 483.453 416.633 482.353 416.34 480.96C416.047 479.42 415.167 478.21 413.7 477.33C412.233 476.377 409.74 475.9 406.22 475.9H395.11C393.497 475.9 392.287 476.12 391.48 476.56C390.673 477 390.16 478.1 389.94 479.86C389.72 481.62 389.61 484.517 389.61 488.55V531.78C389.61 534.42 390.38 536.4 391.92 537.72C393.46 538.967 395.587 539.847 398.3 540.36C399.547 540.58 400.463 540.837 401.05 541.13C401.637 541.423 401.93 541.827 401.93 542.34C401.93 542.78 401.637 543.073 401.05 543.22C400.463 543.44 399.693 543.55 398.74 543.55C396.76 543.55 395.11 543.477 393.79 543.33C392.543 543.257 391.333 543.183 390.16 543.11C388.987 543.037 387.557 543 385.87 543C384.037 543 382.423 543.037 381.03 543.11C379.71 543.183 378.317 543.257 376.85 543.33C375.457 543.477 373.77 543.55 371.79 543.55ZM429.201 543.55C428.248 543.55 427.478 543.44 426.891 543.22C426.305 543.073 426.011 542.78 426.011 542.34C426.011 541.46 427.221 540.8 429.641 540.36C432.428 539.847 434.481 539.003 435.801 537.83C437.121 536.657 437.781 534.75 437.781 532.11V482.61C437.781 479.97 437.231 478.1 436.131 477C435.105 475.9 433.198 475.093 430.411 474.58C429.165 474.36 428.248 474.067 427.661 473.7C427.075 473.333 426.781 472.893 426.781 472.38C426.781 471.94 427.075 471.647 427.661 471.5C428.248 471.28 429.018 471.17 429.971 471.17C432.758 471.17 435.105 471.207 437.011 471.28C438.991 471.353 440.898 471.427 442.731 471.5C444.638 471.5 446.875 471.5 449.441 471.5C451.861 471.5 454.391 471.5 457.031 471.5C459.745 471.427 462.238 471.39 464.511 471.39C467.005 471.317 469.095 471.28 470.781 471.28C472.541 471.207 473.568 471.17 473.861 471.17C474.228 471.17 474.631 471.243 475.071 471.39C475.511 471.537 475.768 471.793 475.841 472.16C476.208 474.213 476.575 476.267 476.941 478.32C477.308 480.3 477.491 482.023 477.491 483.49C477.491 484.15 477.308 484.59 476.941 484.81C476.648 485.03 476.318 485.14 475.951 485.14C475.585 485.14 475.328 485.067 475.181 484.92C475.035 484.7 474.888 484.407 474.741 484.04C474.375 482.793 474.008 481.62 473.641 480.52C473.275 479.347 472.835 478.503 472.321 477.99C471.295 476.817 470.158 476.047 468.911 475.68C467.665 475.24 466.345 475.02 464.951 475.02H450.541C449.955 475.02 449.148 475.35 448.121 476.01C447.095 476.67 446.581 477.513 446.581 478.54V501.86C446.581 502.52 446.765 503.107 447.131 503.62C447.571 504.06 448.048 504.28 448.561 504.28H459.451C461.578 504.28 463.045 503.913 463.851 503.18C464.658 502.373 465.318 500.943 465.831 498.89C466.271 497.277 466.931 496.47 467.811 496.47C468.105 496.47 468.398 496.617 468.691 496.91C469.058 497.203 469.241 497.643 469.241 498.23C469.241 498.523 469.205 499.183 469.131 500.21C469.131 501.237 469.095 502.3 469.021 503.4C468.948 504.5 468.911 505.343 468.911 505.93C468.911 506.663 468.911 507.653 468.911 508.9C468.985 510.073 469.021 511.21 469.021 512.31C469.095 513.41 469.131 514.107 469.131 514.4C469.131 514.913 469.058 515.353 468.911 515.72C468.838 516.087 468.581 516.27 468.141 516.27C467.041 516.27 466.198 515.097 465.611 512.75C465.171 511.063 464.585 509.817 463.851 509.01C463.118 508.203 462.018 507.8 460.551 507.8H450.321C449.075 507.8 448.121 507.983 447.461 508.35C446.875 508.643 446.581 509.413 446.581 510.66V531.78C446.581 534.567 447.168 536.51 448.341 537.61C449.515 538.637 451.348 539.15 453.841 539.15H461.981C464.328 539.15 466.271 539.04 467.811 538.82C469.425 538.527 470.818 538.013 471.991 537.28C473.165 536.473 474.191 535.41 475.071 534.09C476.025 532.77 477.088 531.01 478.261 528.81C478.481 528.37 478.738 528.003 479.031 527.71C479.325 527.417 479.655 527.307 480.021 527.38C480.388 527.453 480.681 527.637 480.901 527.93C481.121 528.15 481.231 528.48 481.231 528.92C481.231 529.58 481.048 530.753 480.681 532.44C480.315 534.053 479.838 535.74 479.251 537.5C478.738 539.26 478.261 540.653 477.821 541.68C477.601 542.193 477.381 542.633 477.161 543C477.015 543.367 476.721 543.55 476.281 543.55C472.761 543.55 469.498 543.513 466.491 543.44C463.485 543.367 460.625 543.293 457.911 543.22C455.198 543.147 452.521 543.073 449.881 543C447.315 542.927 444.638 542.89 441.851 542.89C440.238 542.89 438.845 542.927 437.671 543C436.498 543.147 435.288 543.257 434.041 543.33C432.795 543.477 431.181 543.55 429.201 543.55ZM554.101 545.31C552.048 545.31 550.105 545.127 548.271 544.76C546.438 544.467 544.751 543.88 543.211 543C541.671 542.12 540.241 540.91 538.921 539.37C537.161 537.17 535.475 535.08 533.861 533.1C532.248 531.047 530.525 528.7 528.691 526.06C526.931 523.42 524.768 520.047 522.201 515.94C521.101 514.107 519.525 512.677 517.471 511.65C515.858 510.843 514.245 510.293 512.631 510C511.091 509.633 509.808 509.413 508.781 509.34C508.195 509.267 507.755 509.45 507.461 509.89C507.241 510.33 507.131 510.88 507.131 511.54V530.9C507.131 533.247 507.681 535.3 508.781 537.06C509.881 538.747 511.788 539.847 514.501 540.36C515.748 540.58 516.665 540.837 517.251 541.13C517.838 541.423 518.131 541.827 518.131 542.34C518.131 542.78 517.838 543.073 517.251 543.22C516.665 543.44 515.895 543.55 514.941 543.55C512.961 543.55 511.421 543.477 510.321 543.33C509.295 543.183 508.341 543.073 507.461 543C506.655 542.853 505.555 542.78 504.161 542.78C502.328 542.78 500.678 542.853 499.211 543C497.818 543.073 496.388 543.183 494.921 543.33C493.528 543.477 491.841 543.55 489.861 543.55C488.908 543.55 488.138 543.44 487.551 543.22C486.965 543.073 486.671 542.78 486.671 542.34C486.671 541.46 487.881 540.8 490.301 540.36C493.088 539.847 495.105 539.003 496.351 537.83C497.671 536.657 498.331 534.713 498.331 532V485.14C498.331 482.353 498.185 480.263 497.891 478.87C497.671 477.403 497.085 476.377 496.131 475.79C495.251 475.203 493.748 474.8 491.621 474.58C490.375 474.433 489.458 474.177 488.871 473.81C488.285 473.37 487.991 472.893 487.991 472.38C487.991 471.94 488.285 471.647 488.871 471.5C489.458 471.28 490.228 471.17 491.181 471.17C493.161 471.17 494.628 471.17 495.581 471.17C496.608 471.17 497.561 471.207 498.441 471.28C499.321 471.28 500.495 471.28 501.961 471.28C503.355 471.28 504.601 471.243 505.701 471.17C506.801 471.023 508.011 470.913 509.331 470.84C510.725 470.767 512.485 470.73 514.611 470.73C522.678 470.73 528.801 472.233 532.981 475.24C537.235 478.247 539.361 482.757 539.361 488.77C539.361 492.07 538.701 494.93 537.381 497.35C536.061 499.697 534.411 501.677 532.431 503.29C530.451 504.903 528.435 506.223 526.381 507.25C526.088 507.323 525.941 507.507 525.941 507.8C526.015 508.02 526.161 508.313 526.381 508.68C528.655 512.127 530.818 515.39 532.871 518.47C534.998 521.55 537.308 524.557 539.801 527.49C542.295 530.423 545.265 533.467 548.711 536.62C550.618 538.307 552.561 539.333 554.541 539.7C556.521 540.067 558.795 540.25 561.361 540.25C562.461 540.25 563.011 540.653 563.011 541.46C563.011 542.56 562.461 543.367 561.361 543.88C560.261 544.467 559.015 544.833 557.621 544.98C556.228 545.2 555.055 545.31 554.101 545.31ZM512.961 506.81C516.335 506.81 519.231 506.04 521.651 504.5C524.145 502.96 526.051 500.943 527.371 498.45C528.765 495.957 529.461 493.317 529.461 490.53C529.461 487.523 529.058 484.773 528.251 482.28C527.518 479.787 525.978 477.807 523.631 476.34C521.358 474.8 517.911 474.03 513.291 474.03C510.945 474.03 509.405 474.8 508.671 476.34C507.938 477.807 507.498 480.447 507.351 484.26C507.278 486.093 507.205 488.587 507.131 491.74C507.131 494.82 507.131 498.56 507.131 502.96C507.131 504.793 507.645 505.893 508.671 506.26C509.698 506.627 511.128 506.81 512.961 506.81ZM635.929 544.87C635.269 544.87 633.949 544.32 631.969 543.22C630.063 542.12 628.229 540.36 626.469 537.94C626.176 537.573 625.259 536.473 623.719 534.64C622.253 532.807 620.346 530.533 617.999 527.82C615.726 525.033 613.233 522.027 610.519 518.8C607.806 515.573 605.093 512.347 602.379 509.12C599.666 505.893 597.136 502.923 594.789 500.21C592.443 497.423 590.463 495.113 588.849 493.28C587.309 491.373 586.356 490.2 585.989 489.76C585.476 489.1 585.036 488.66 584.669 488.44C584.303 488.147 583.973 488 583.679 488C583.313 488 583.056 488.293 582.909 488.88C582.763 489.393 582.689 489.87 582.689 490.31C582.616 493.903 582.543 498.047 582.469 502.74C582.396 507.433 582.323 512.273 582.249 517.26C582.176 522.247 582.139 527.013 582.139 531.56C582.139 533.54 582.616 535.373 583.569 537.06C584.596 538.747 586.466 539.847 589.179 540.36C590.426 540.58 591.343 540.837 591.929 541.13C592.516 541.423 592.809 541.827 592.809 542.34C592.809 542.78 592.516 543.073 591.929 543.22C591.343 543.44 590.573 543.55 589.619 543.55C587.639 543.55 586.136 543.477 585.109 543.33C584.156 543.257 583.276 543.183 582.469 543.11C581.736 543.037 580.673 543 579.279 543C577.959 543 576.933 543.037 576.199 543.11C575.466 543.183 574.623 543.257 573.669 543.33C572.716 543.477 571.249 543.55 569.269 543.55C568.316 543.55 567.546 543.44 566.959 543.22C566.373 543.073 566.079 542.78 566.079 542.34C566.079 541.827 566.373 541.423 566.959 541.13C567.546 540.837 568.463 540.543 569.709 540.25C571.836 539.663 573.376 538.6 574.329 537.06C575.283 535.447 575.869 533.503 576.089 531.23C576.383 528.443 576.676 524.777 576.969 520.23C577.263 515.61 577.519 510.477 577.739 504.83C577.959 499.11 578.069 493.243 578.069 487.23C578.069 483.343 577.043 480.557 574.989 478.87C573.009 477.183 570.406 475.827 567.179 474.8C566.886 474.653 566.226 474.36 565.199 473.92C564.246 473.407 563.769 472.82 563.769 472.16C563.769 471.5 564.099 471.097 564.759 470.95C565.419 470.73 565.933 470.62 566.299 470.62C568.426 470.693 570.149 470.767 571.469 470.84C572.789 470.84 573.963 470.877 574.989 470.95C576.016 471.023 577.153 471.097 578.399 471.17C579.646 471.17 581.259 471.17 583.239 471.17C583.899 471.17 584.413 471.353 584.779 471.72C585.146 472.087 585.513 472.527 585.879 473.04C586.173 473.48 587.126 474.727 588.739 476.78C590.426 478.76 592.479 481.29 594.899 484.37C597.393 487.377 600.106 490.677 603.039 494.27C605.973 497.79 608.906 501.347 611.839 504.94C614.773 508.46 617.486 511.76 619.979 514.84C622.473 517.847 624.526 520.34 626.139 522.32C627.826 524.3 628.816 525.473 629.109 525.84C629.403 526.133 629.806 526.573 630.319 527.16C630.906 527.747 631.419 528.04 631.859 528.04C632.519 528.04 632.886 527.27 632.959 525.73C632.959 524.703 632.959 522.76 632.959 519.9C633.033 516.967 633.069 513.447 633.069 509.34C633.143 505.16 633.179 500.65 633.179 495.81C633.179 490.97 633.179 486.02 633.179 480.96C633.106 479.493 632.336 478.173 630.869 477C629.403 475.827 628.046 475.13 626.799 474.91C625.553 474.69 624.416 474.397 623.389 474.03C622.363 473.663 621.849 473.223 621.849 472.71C621.849 472.27 622.363 471.977 623.389 471.83C624.416 471.61 625.406 471.5 626.359 471.5C627.093 471.5 627.789 471.5 628.449 471.5C629.183 471.5 629.879 471.5 630.539 471.5C631.273 471.5 631.969 471.5 632.629 471.5C634.389 471.5 635.783 471.5 636.809 471.5C637.836 471.427 638.936 471.353 640.109 471.28C641.356 471.207 643.079 471.17 645.279 471.17C646.233 471.17 647.003 471.28 647.589 471.5C648.176 471.647 648.469 471.94 648.469 472.38C648.469 473.407 647.259 474.14 644.839 474.58C642.126 475.093 640.329 475.753 639.449 476.56C638.569 477.367 638.056 478.687 637.909 480.52C637.909 480.887 637.873 482.317 637.799 484.81C637.799 487.303 637.799 490.457 637.799 494.27C637.799 498.083 637.763 502.19 637.689 506.59C637.689 510.99 637.689 515.39 637.689 519.79C637.689 524.117 637.689 528.003 637.689 531.45C637.689 533.21 637.726 534.823 637.799 536.29C637.946 537.683 638.056 538.893 638.129 539.92C638.203 540.873 638.239 541.607 638.239 542.12C638.239 543.293 637.983 544.027 637.469 544.32C637.029 544.687 636.516 544.87 635.929 544.87ZM652.538 543.55C651.585 543.55 650.815 543.403 650.228 543.11C649.642 542.89 649.348 542.56 649.348 542.12C649.348 541.607 649.642 541.167 650.228 540.8C650.888 540.36 651.805 539.957 652.978 539.59C654.885 539.003 656.645 538.123 658.258 536.95C659.872 535.777 661.265 533.833 662.438 531.12C664.492 526.427 666.362 522.027 668.048 517.92C669.808 513.813 671.458 509.78 672.998 505.82C674.538 501.86 676.115 497.753 677.728 493.5C679.415 489.173 681.175 484.48 683.008 479.42C683.375 478.393 683.705 477.367 683.998 476.34C684.292 475.313 684.475 474.213 684.548 473.04C685.208 472.82 685.868 472.6 686.528 472.38C687.188 472.16 687.848 471.83 688.508 471.39C689.168 470.95 689.608 470.29 689.828 469.41C690.122 468.53 690.378 467.943 690.598 467.65C690.672 467.577 690.745 467.54 690.818 467.54C690.965 467.54 691.075 467.613 691.148 467.76C691.295 468.053 691.405 468.42 691.478 468.86C691.625 469.3 691.772 469.74 691.918 470.18C693.678 475.753 695.512 481.437 697.418 487.23C699.325 493.023 701.158 498.633 702.918 504.06C704.752 509.413 706.402 514.253 707.868 518.58C709.408 522.833 710.618 526.28 711.498 528.92C712.525 531.853 713.625 534.053 714.798 535.52C715.972 536.987 717.182 538.013 718.428 538.6C719.748 539.187 721.142 539.627 722.608 539.92C723.855 540.14 724.772 540.507 725.358 541.02C725.945 541.46 726.238 541.937 726.238 542.45C726.238 542.89 725.945 543.183 725.358 543.33C724.772 543.477 724.002 543.55 723.048 543.55C722.022 543.55 720.628 543.477 718.868 543.33C717.108 543.257 715.238 543.147 713.258 543C711.278 542.927 709.445 542.89 707.758 542.89C706.365 542.89 704.935 542.89 703.468 542.89C702.002 542.89 700.645 542.927 699.398 543C698.152 543 697.088 543 696.208 543C695.255 543 694.485 542.89 693.898 542.67C693.312 542.45 693.018 542.12 693.018 541.68C693.018 541.167 693.385 540.727 694.118 540.36C694.852 539.993 695.695 539.737 696.648 539.59C699.068 539.223 700.792 538.6 701.818 537.72C702.845 536.84 703.358 535.813 703.358 534.64C703.358 533.54 703.102 531.963 702.588 529.91C702.148 527.783 701.598 525.547 700.938 523.2C700.278 520.78 699.655 518.653 699.068 516.82C698.922 516.233 698.628 515.903 698.188 515.83C697.822 515.683 697.125 515.61 696.098 515.61H675.308C675.015 515.61 674.685 515.757 674.318 516.05C674.025 516.27 673.732 516.783 673.438 517.59C673.218 518.323 672.852 519.497 672.338 521.11C671.825 522.65 671.312 524.3 670.798 526.06C670.285 527.82 669.845 529.397 669.478 530.79C669.112 532.183 668.928 533.063 668.928 533.43C668.928 535.043 669.552 536.4 670.798 537.5C672.045 538.527 673.548 539.26 675.308 539.7C677.728 540.36 678.938 541.093 678.938 541.9C678.938 542.34 678.645 542.67 678.058 542.89C677.472 543.037 676.702 543.11 675.748 543.11C674.795 543.11 673.402 543.073 671.568 543C669.735 542.927 667.792 542.89 665.738 542.89C663.318 542.89 660.972 543 658.698 543.22C656.425 543.44 654.372 543.55 652.538 543.55ZM678.278 511.98H695.328C696.355 511.98 696.868 511.797 696.868 511.43C696.868 511.283 696.832 511.137 696.758 510.99C696.758 510.77 696.722 510.55 696.648 510.33L688.068 483.49C687.628 482.17 687.298 481.51 687.078 481.51C686.932 481.51 686.638 482.133 686.198 483.38L676.188 510.33C676.042 510.77 675.968 511.063 675.968 511.21C675.968 511.577 676.152 511.797 676.518 511.87C676.958 511.943 677.545 511.98 678.278 511.98ZM731.78 543.55C730.827 543.55 730.057 543.403 729.47 543.11C728.957 542.89 728.7 542.597 728.7 542.23C728.7 541.57 729.03 541.13 729.69 540.91C730.424 540.617 730.9 540.433 731.12 540.36C733.98 539.773 736.18 538.93 737.72 537.83C739.26 536.657 740.03 534.86 740.03 532.44V481.4C740.03 479.64 739.847 478.357 739.48 477.55C739.114 476.67 738.454 476.047 737.5 475.68C736.547 475.24 735.154 474.873 733.32 474.58C730.9 474.14 729.69 473.407 729.69 472.38C729.69 471.94 729.984 471.647 730.57 471.5C731.157 471.28 731.927 471.17 732.88 471.17C734.86 471.17 736.437 471.207 737.61 471.28C738.857 471.353 740.03 471.427 741.13 471.5C742.23 471.5 743.587 471.5 745.2 471.5C747.034 471.5 748.61 471.5 749.93 471.5C751.25 471.427 752.607 471.353 754 471.28C755.394 471.207 757.08 471.17 759.06 471.17C760.014 471.17 760.784 471.28 761.37 471.5C761.957 471.647 762.25 471.94 762.25 472.38C762.25 472.893 761.957 473.333 761.37 473.7C760.784 474.067 759.867 474.36 758.62 474.58C755.907 475.093 753.597 475.717 751.69 476.45C749.784 477.11 748.83 478.503 748.83 480.63V532.44C748.83 534.713 749.344 536.4 750.37 537.5C751.397 538.6 753.707 539.15 757.3 539.15H770.94C772.92 539.15 774.644 538.857 776.11 538.27C777.65 537.61 778.787 536.95 779.52 536.29C780.987 535.043 782.05 533.943 782.71 532.99C783.444 531.963 784.287 530.46 785.24 528.48C785.387 528.04 785.68 527.38 786.12 526.5C786.634 525.62 787.147 525.18 787.66 525.18C788.1 525.18 788.43 525.4 788.65 525.84C788.87 526.28 788.98 526.72 788.98 527.16C788.98 527.233 788.944 527.343 788.87 527.49C788.87 527.563 788.87 527.637 788.87 527.71C788.357 529.617 787.88 531.34 787.44 532.88C787.074 534.42 786.744 535.887 786.45 537.28C786.23 538.673 786.047 540.14 785.9 541.68C785.827 542.193 785.68 542.633 785.46 543C785.314 543.367 784.947 543.55 784.36 543.55C780.694 543.55 777.174 543.513 773.8 543.44C770.427 543.367 767.164 543.293 764.01 543.22C760.93 543.22 757.96 543.183 755.1 543.11C752.24 543.037 749.417 543 746.63 543C744.797 543 742.707 543.037 740.36 543.11C738.087 543.183 736.07 543.257 734.31 543.33C732.624 543.477 731.78 543.55 731.78 543.55Z" fill="#2E4152"/>
<g filter="url(#filter0_d_486_33)">
<path d="M597 433H787V439H597V433Z" fill="#2E4152"/>
</g>
<g filter="url(#filter1_d_486_33)">
<path d="M282.259 432.56H472.259V438.612H282.259V432.56Z" fill="#2E4152"/>
</g>
<g filter="url(#filter2_d_486_33)">
<path d="M536.81 395.241C539.627 395.255 544.519 394.738 546.868 393.184C549.217 391.63 551.053 389.415 552.143 386.818C553.233 384.222 553.529 381.36 552.992 378.595C552.456 375.83 551.112 373.287 549.13 371.286C547.148 369.285 544.617 367.917 541.857 367.354C539.098 366.792 536.233 367.06 533.626 368.126C531.019 369.191 528.787 371.006 527.211 373.34C525.635 375.674 524.787 378.423 524.774 381.239L527.809 381.254C527.82 379.038 528.487 376.875 529.727 375.038C530.967 373.201 532.723 371.774 534.775 370.935C536.826 370.097 539.08 369.886 541.251 370.329C543.422 370.771 545.414 371.848 546.973 373.422C548.533 374.996 549.59 376.998 550.012 379.173C550.434 381.349 550.202 383.6 549.344 385.644C548.486 387.687 547.042 389.43 545.194 390.652C543.345 391.875 539.026 392.226 536.81 392.216L536.81 395.241Z" fill="#2E4152"/>
</g>
<g filter="url(#filter3_d_486_33)">
<path d="M540.845 393.224H536.81V413.397H540.845V402.779V393.224Z" fill="#2E4152"/>
</g>
<g filter="url(#filter4_d_486_33)">
<path d="M575.138 448.194C575.138 438.698 571.206 429.59 564.207 422.875C557.209 416.16 547.717 412.388 537.819 412.388C527.921 412.388 518.429 416.16 511.43 422.875C504.432 429.59 500.5 438.698 500.5 448.194H508.968C508.968 440.852 512.008 433.812 517.418 428.62C522.829 423.429 530.167 420.513 537.819 420.513C545.471 420.513 552.809 423.429 558.22 428.62C563.63 433.812 566.67 440.852 566.67 448.194H575.138Z" fill="#2E4152"/>
</g>
<defs>
<filter id="filter0_d_486_33" x="593" y="433" width="198" height="14" filterUnits="userSpaceOnUse" color-interpolation-filters="sRGB">
<feFlood flood-opacity="0" result="BackgroundImageFix"/>
<feColorMatrix in="SourceAlpha" type="matrix" values="0 0 0 0 0 0 0 0 0 0 0 0 0 0 0 0 0 0 127 0" result="hardAlpha"/>
<feOffset dy="4"/>
<feGaussianBlur stdDeviation="2"/>
<feComposite in2="hardAlpha" operator="out"/>
<feColorMatrix type="matrix" values="0 0 0 0 0 0 0 0 0 0 0 0 0 0 0 0 0 0 0.25 0"/>
<feBlend mode="normal" in2="BackgroundImageFix" result="effect1_dropShadow_486_33"/>
<feBlend mode="normal" in="SourceGraphic" in2="effect1_dropShadow_486_33" result="shape"/>
</filter>
<filter id="filter1_d_486_33" x="278.259" y="432.56" width="198" height="14.0517" filterUnits="userSpaceOnUse" color-interpolation-filters="sRGB">
<feFlood flood-opacity="0" result="BackgroundImageFix"/>
<feColorMatrix in="SourceAlpha" type="matrix" values="0 0 0 0 0 0 0 0 0 0 0 0 0 0 0 0 0 0 127 0" result="hardAlpha"/>
<feOffset dy="4"/>
<feGaussianBlur stdDeviation="2"/>
<feComposite in2="hardAlpha" operator="out"/>
<feColorMatrix type="matrix" values="0 0 0 0 0 0 0 0 0 0 0 0 0 0 0 0 0 0 0.25 0"/>
<feBlend mode="normal" in2="BackgroundImageFix" result="effect1_dropShadow_486_33"/>
<feBlend mode="normal" in="SourceGraphic" in2="effect1_dropShadow_486_33" result="shape"/>
</filter>
<filter id="filter2_d_486_33" x="520.774" y="367.067" width="36.479" height="36.1743" filterUnits="userSpaceOnUse" color-interpolation-filters="sRGB">
<feFlood flood-opacity="0" result="BackgroundImageFix"/>
<feColorMatrix in="SourceAlpha" type="matrix" values="0 0 0 0 0 0 0 0 0 0 0 0 0 0 0 0 0 0 127 0" result="hardAlpha"/>
<feOffset dy="4"/>
<feGaussianBlur stdDeviation="2"/>
<feComposite in2="hardAlpha" operator="out"/>
<feColorMatrix type="matrix" values="0 0 0 0 0 0 0 0 0 0 0 0 0 0 0 0 0 0 0.25 0"/>
<feBlend mode="normal" in2="BackgroundImageFix" result="effect1_dropShadow_486_33"/>
<feBlend mode="normal" in="SourceGraphic" in2="effect1_dropShadow_486_33" result="shape"/>
</filter>
<filter id="filter3_d_486_33" x="532.81" y="393.224" width="12.0344" height="28.1724" filterUnits="userSpaceOnUse" color-interpolation-filters="sRGB">
<feFlood flood-opacity="0" result="BackgroundImageFix"/>
<feColorMatrix in="SourceAlpha" type="matrix" values="0 0 0 0 0 0 0 0 0 0 0 0 0 0 0 0 0 0 127 0" result="hardAlpha"/>
<feOffset dy="4"/>
<feGaussianBlur stdDeviation="2"/>
<feComposite in2="hardAlpha" operator="out"/>
<feColorMatrix type="matrix" values="0 0 0 0 0 0 0 0 0 0 0 0 0 0 0 0 0 0 0.25 0"/>
<feBlend mode="normal" in2="BackgroundImageFix" result="effect1_dropShadow_486_33"/>
<feBlend mode="normal" in="SourceGraphic" in2="effect1_dropShadow_486_33" result="shape"/>
</filter>
<filter id="filter4_d_486_33" x="496.5" y="412.388" width="82.6379" height="43.806" filterUnits="userSpaceOnUse" color-interpolation-filters="sRGB">
<feFlood flood-opacity="0" result="BackgroundImageFix"/>
<feColorMatrix in="SourceAlpha" type="matrix" values="0 0 0 0 0 0 0 0 0 0 0 0 0 0 0 0 0 0 127 0" result="hardAlpha"/>
<feOffset dy="4"/>
<feGaussianBlur stdDeviation="2"/>
<feComposite in2="hardAlpha" operator="out"/>
<feColorMatrix type="matrix" values="0 0 0 0 0 0 0 0 0 0 0 0 0 0 0 0 0 0 0.25 0"/>
<feBlend mode="normal" in2="BackgroundImageFix" result="effect1_dropShadow_486_33"/>
<feBlend mode="normal" in="SourceGraphic" in2="effect1_dropShadow_486_33" result="shape"/>
</filter>
</defs>
</svg>
