<svg width="1024" height="1024" viewBox="0 0 1024 1024" fill="none" xmlns="http://www.w3.org/2000/svg">
<rect width="1024" height="1024" fill="#2E4152"/>
<path d="M259.448 524.64C258.339 524.64 257.443 524.512 256.76 524.256C256.077 524.085 255.736 523.744 255.736 523.232C255.736 522.208 257.144 521.44 259.96 520.928C263.203 520.331 265.592 519.349 267.128 517.984C268.664 516.619 269.432 514.4 269.432 511.328V453.728C269.432 450.656 268.792 448.48 267.512 447.2C266.317 445.92 264.099 444.981 260.856 444.384C259.405 444.128 258.339 443.787 257.656 443.36C256.973 442.933 256.632 442.421 256.632 441.824C256.632 441.312 256.973 440.971 257.656 440.8C258.339 440.544 259.235 440.416 260.344 440.416C263.587 440.416 266.317 440.459 268.536 440.544C270.84 440.629 273.059 440.715 275.192 440.8C277.411 440.8 280.013 440.8 283 440.8C285.816 440.8 288.76 440.8 291.832 440.8C294.989 440.715 297.891 440.672 300.536 440.672C303.437 440.587 305.869 440.544 307.832 440.544C309.88 440.459 311.075 440.416 311.416 440.416C311.843 440.416 312.312 440.501 312.824 440.672C313.336 440.843 313.635 441.141 313.72 441.568C314.147 443.957 314.573 446.347 315 448.736C315.427 451.04 315.64 453.045 315.64 454.752C315.64 455.52 315.427 456.032 315 456.288C314.659 456.544 314.275 456.672 313.848 456.672C313.421 456.672 313.123 456.587 312.952 456.416C312.781 456.16 312.611 455.819 312.44 455.392C312.013 453.941 311.587 452.576 311.16 451.296C310.733 449.931 310.221 448.949 309.624 448.352C308.429 446.987 307.107 446.091 305.656 445.664C304.205 445.152 302.669 444.896 301.048 444.896H284.28C283.597 444.896 282.659 445.28 281.464 446.048C280.269 446.816 279.672 447.797 279.672 448.992V476.128C279.672 476.896 279.885 477.579 280.312 478.176C280.824 478.688 281.379 478.944 281.976 478.944H294.648C297.123 478.944 298.829 478.517 299.768 477.664C300.707 476.725 301.475 475.061 302.072 472.672C302.584 470.795 303.352 469.856 304.376 469.856C304.717 469.856 305.059 470.027 305.4 470.368C305.827 470.709 306.04 471.221 306.04 471.904C306.04 472.245 305.997 473.013 305.912 474.208C305.912 475.403 305.869 476.64 305.784 477.92C305.699 479.2 305.656 480.181 305.656 480.864C305.656 481.717 305.656 482.869 305.656 484.32C305.741 485.685 305.784 487.008 305.784 488.288C305.869 489.568 305.912 490.379 305.912 490.72C305.912 491.317 305.827 491.829 305.656 492.256C305.571 492.683 305.272 492.896 304.76 492.896C303.48 492.896 302.499 491.531 301.816 488.8C301.304 486.837 300.621 485.387 299.768 484.448C298.915 483.509 297.635 483.04 295.928 483.04H284.024C282.573 483.04 281.464 483.253 280.696 483.68C280.013 484.021 279.672 484.917 279.672 486.368V510.944C279.672 514.187 280.355 516.448 281.72 517.728C283.085 518.923 285.219 519.52 288.12 519.52H297.592C300.323 519.52 302.584 519.392 304.376 519.136C306.253 518.795 307.875 518.197 309.24 517.344C310.605 516.405 311.8 515.168 312.824 513.632C313.933 512.096 315.171 510.048 316.536 507.488C316.792 506.976 317.091 506.549 317.432 506.208C317.773 505.867 318.157 505.739 318.584 505.824C319.011 505.909 319.352 506.123 319.608 506.464C319.864 506.72 319.992 507.104 319.992 507.616C319.992 508.384 319.779 509.749 319.352 511.712C318.925 513.589 318.371 515.552 317.688 517.6C317.091 519.648 316.536 521.269 316.024 522.464C315.768 523.061 315.512 523.573 315.256 524C315.085 524.427 314.744 524.64 314.232 524.64C310.136 524.64 306.339 524.597 302.84 524.512C299.341 524.427 296.013 524.341 292.856 524.256C289.699 524.171 286.584 524.085 283.512 524C280.525 523.915 277.411 523.872 274.168 523.872C272.291 523.872 270.669 523.915 269.304 524C267.939 524.171 266.531 524.299 265.08 524.384C263.629 524.555 261.752 524.64 259.448 524.64ZM346.79 524.55C345.837 524.55 345.067 524.44 344.48 524.22C343.893 524.073 343.6 523.78 343.6 523.34C343.6 522.827 343.893 522.423 344.48 522.13C345.067 521.837 345.983 521.58 347.23 521.36C350.017 520.847 352.143 519.967 353.61 518.72C355.077 517.4 355.81 515.42 355.81 512.78V470.1C355.81 466.727 355.737 464.16 355.59 462.4C355.443 460.567 355.187 459.283 354.82 458.55C354.527 457.817 354.087 457.413 353.5 457.34C352.473 457.12 351.373 457.01 350.2 457.01C349.1 456.937 347.597 456.9 345.69 456.9H340.52C338.76 456.9 337 457.267 335.24 458C333.553 458.66 332.307 459.723 331.5 461.19C331.28 461.557 330.913 462.107 330.4 462.84C329.887 463.5 329.337 464.087 328.75 464.6C328.163 465.113 327.577 465.37 326.99 465.37C326.697 465.37 326.477 465.223 326.33 464.93C326.257 464.637 326.22 464.307 326.22 463.94C326.22 463.207 326.403 462.473 326.77 461.74C327.797 459.613 328.53 457.743 328.97 456.13C329.483 454.443 329.887 452.463 330.18 450.19C330.327 448.943 330.583 448.21 330.95 447.99C331.39 447.77 331.757 447.66 332.05 447.66C332.343 447.66 332.783 448.1 333.37 448.98C334.03 449.86 334.507 450.593 334.8 451.18C335.24 451.913 336.23 452.463 337.77 452.83C339.383 453.197 340.96 453.38 342.5 453.38H381.22C383.787 453.38 385.877 453.233 387.49 452.94C389.103 452.647 390.497 452.243 391.67 451.73C392.55 451.29 393.247 450.813 393.76 450.3C394.347 449.787 395.08 449.53 395.96 449.53C396.18 449.53 396.363 449.823 396.51 450.41C396.657 450.923 396.73 451.473 396.73 452.06C396.73 452.427 396.657 452.94 396.51 453.6C396.437 454.26 396.363 454.773 396.29 455.14C396.07 456.46 395.85 457.413 395.63 458C395.483 458.587 395.373 459.1 395.3 459.54C395.227 459.98 395.19 460.677 395.19 461.63V462.95C395.19 463.61 395.043 464.38 394.75 465.26C394.457 466.067 394.017 466.47 393.43 466.47C392.917 466.47 392.513 466.067 392.22 465.26C391.927 464.453 391.633 463.353 391.34 461.96C391.047 460.42 390.167 459.21 388.7 458.33C387.233 457.377 384.74 456.9 381.22 456.9H370.11C368.497 456.9 367.287 457.12 366.48 457.56C365.673 458 365.16 459.1 364.94 460.86C364.72 462.62 364.61 465.517 364.61 469.55V512.78C364.61 515.42 365.38 517.4 366.92 518.72C368.46 519.967 370.587 520.847 373.3 521.36C374.547 521.58 375.463 521.837 376.05 522.13C376.637 522.423 376.93 522.827 376.93 523.34C376.93 523.78 376.637 524.073 376.05 524.22C375.463 524.44 374.693 524.55 373.74 524.55C371.76 524.55 370.11 524.477 368.79 524.33C367.543 524.257 366.333 524.183 365.16 524.11C363.987 524.037 362.557 524 360.87 524C359.037 524 357.423 524.037 356.03 524.11C354.71 524.183 353.317 524.257 351.85 524.33C350.457 524.477 348.77 524.55 346.79 524.55ZM404.201 524.55C403.248 524.55 402.478 524.44 401.891 524.22C401.305 524.073 401.011 523.78 401.011 523.34C401.011 522.46 402.221 521.8 404.641 521.36C407.428 520.847 409.481 520.003 410.801 518.83C412.121 517.657 412.781 515.75 412.781 513.11V463.61C412.781 460.97 412.231 459.1 411.131 458C410.105 456.9 408.198 456.093 405.411 455.58C404.165 455.36 403.248 455.067 402.661 454.7C402.075 454.333 401.781 453.893 401.781 453.38C401.781 452.94 402.075 452.647 402.661 452.5C403.248 452.28 404.018 452.17 404.971 452.17C407.758 452.17 410.105 452.207 412.011 452.28C413.991 452.353 415.898 452.427 417.731 452.5C419.638 452.5 421.875 452.5 424.441 452.5C426.861 452.5 429.391 452.5 432.031 452.5C434.745 452.427 437.238 452.39 439.511 452.39C442.005 452.317 444.095 452.28 445.781 452.28C447.541 452.207 448.568 452.17 448.861 452.17C449.228 452.17 449.631 452.243 450.071 452.39C450.511 452.537 450.768 452.793 450.841 453.16C451.208 455.213 451.575 457.267 451.941 459.32C452.308 461.3 452.491 463.023 452.491 464.49C452.491 465.15 452.308 465.59 451.941 465.81C451.648 466.03 451.318 466.14 450.951 466.14C450.585 466.14 450.328 466.067 450.181 465.92C450.035 465.7 449.888 465.407 449.741 465.04C449.375 463.793 449.008 462.62 448.641 461.52C448.275 460.347 447.835 459.503 447.321 458.99C446.295 457.817 445.158 457.047 443.911 456.68C442.665 456.24 441.345 456.02 439.951 456.02H425.541C424.955 456.02 424.148 456.35 423.121 457.01C422.095 457.67 421.581 458.513 421.581 459.54V482.86C421.581 483.52 421.765 484.107 422.131 484.62C422.571 485.06 423.048 485.28 423.561 485.28H434.451C436.578 485.28 438.045 484.913 438.851 484.18C439.658 483.373 440.318 481.943 440.831 479.89C441.271 478.277 441.931 477.47 442.811 477.47C443.105 477.47 443.398 477.617 443.691 477.91C444.058 478.203 444.241 478.643 444.241 479.23C444.241 479.523 444.205 480.183 444.131 481.21C444.131 482.237 444.095 483.3 444.021 484.4C443.948 485.5 443.911 486.343 443.911 486.93C443.911 487.663 443.911 488.653 443.911 489.9C443.985 491.073 444.021 492.21 444.021 493.31C444.095 494.41 444.131 495.107 444.131 495.4C444.131 495.913 444.058 496.353 443.911 496.72C443.838 497.087 443.581 497.27 443.141 497.27C442.041 497.27 441.198 496.097 440.611 493.75C440.171 492.063 439.585 490.817 438.851 490.01C438.118 489.203 437.018 488.8 435.551 488.8H425.321C424.075 488.8 423.121 488.983 422.461 489.35C421.875 489.643 421.581 490.413 421.581 491.66V512.78C421.581 515.567 422.168 517.51 423.341 518.61C424.515 519.637 426.348 520.15 428.841 520.15H436.981C439.328 520.15 441.271 520.04 442.811 519.82C444.425 519.527 445.818 519.013 446.991 518.28C448.165 517.473 449.191 516.41 450.071 515.09C451.025 513.77 452.088 512.01 453.261 509.81C453.481 509.37 453.738 509.003 454.031 508.71C454.325 508.417 454.655 508.307 455.021 508.38C455.388 508.453 455.681 508.637 455.901 508.93C456.121 509.15 456.231 509.48 456.231 509.92C456.231 510.58 456.048 511.753 455.681 513.44C455.315 515.053 454.838 516.74 454.251 518.5C453.738 520.26 453.261 521.653 452.821 522.68C452.601 523.193 452.381 523.633 452.161 524C452.015 524.367 451.721 524.55 451.281 524.55C447.761 524.55 444.498 524.513 441.491 524.44C438.485 524.367 435.625 524.293 432.911 524.22C430.198 524.147 427.521 524.073 424.881 524C422.315 523.927 419.638 523.89 416.851 523.89C415.238 523.89 413.845 523.927 412.671 524C411.498 524.147 410.288 524.257 409.041 524.33C407.795 524.477 406.181 524.55 404.201 524.55ZM529.101 526.31C527.048 526.31 525.105 526.127 523.271 525.76C521.438 525.467 519.751 524.88 518.211 524C516.671 523.12 515.241 521.91 513.921 520.37C512.161 518.17 510.475 516.08 508.861 514.1C507.248 512.047 505.525 509.7 503.691 507.06C501.931 504.42 499.768 501.047 497.201 496.94C496.101 495.107 494.525 493.677 492.471 492.65C490.858 491.843 489.245 491.293 487.631 491C486.091 490.633 484.808 490.413 483.781 490.34C483.195 490.267 482.755 490.45 482.461 490.89C482.241 491.33 482.131 491.88 482.131 492.54V511.9C482.131 514.247 482.681 516.3 483.781 518.06C484.881 519.747 486.788 520.847 489.501 521.36C490.748 521.58 491.665 521.837 492.251 522.13C492.838 522.423 493.131 522.827 493.131 523.34C493.131 523.78 492.838 524.073 492.251 524.22C491.665 524.44 490.895 524.55 489.941 524.55C487.961 524.55 486.421 524.477 485.321 524.33C484.295 524.183 483.341 524.073 482.461 524C481.655 523.853 480.555 523.78 479.161 523.78C477.328 523.78 475.678 523.853 474.211 524C472.818 524.073 471.388 524.183 469.921 524.33C468.528 524.477 466.841 524.55 464.861 524.55C463.908 524.55 463.138 524.44 462.551 524.22C461.965 524.073 461.671 523.78 461.671 523.34C461.671 522.46 462.881 521.8 465.301 521.36C468.088 520.847 470.105 520.003 471.351 518.83C472.671 517.657 473.331 515.713 473.331 513V466.14C473.331 463.353 473.185 461.263 472.891 459.87C472.671 458.403 472.085 457.377 471.131 456.79C470.251 456.203 468.748 455.8 466.621 455.58C465.375 455.433 464.458 455.177 463.871 454.81C463.285 454.37 462.991 453.893 462.991 453.38C462.991 452.94 463.285 452.647 463.871 452.5C464.458 452.28 465.228 452.17 466.181 452.17C468.161 452.17 469.628 452.17 470.581 452.17C471.608 452.17 472.561 452.207 473.441 452.28C474.321 452.28 475.495 452.28 476.961 452.28C478.355 452.28 479.601 452.243 480.701 452.17C481.801 452.023 483.011 451.913 484.331 451.84C485.725 451.767 487.485 451.73 489.611 451.73C497.678 451.73 503.801 453.233 507.981 456.24C512.235 459.247 514.361 463.757 514.361 469.77C514.361 473.07 513.701 475.93 512.381 478.35C511.061 480.697 509.411 482.677 507.431 484.29C505.451 485.903 503.435 487.223 501.381 488.25C501.088 488.323 500.941 488.507 500.941 488.8C501.015 489.02 501.161 489.313 501.381 489.68C503.655 493.127 505.818 496.39 507.871 499.47C509.998 502.55 512.308 505.557 514.801 508.49C517.295 511.423 520.265 514.467 523.711 517.62C525.618 519.307 527.561 520.333 529.541 520.7C531.521 521.067 533.795 521.25 536.361 521.25C537.461 521.25 538.011 521.653 538.011 522.46C538.011 523.56 537.461 524.367 536.361 524.88C535.261 525.467 534.015 525.833 532.621 525.98C531.228 526.2 530.055 526.31 529.101 526.31ZM487.961 487.81C491.335 487.81 494.231 487.04 496.651 485.5C499.145 483.96 501.051 481.943 502.371 479.45C503.765 476.957 504.461 474.317 504.461 471.53C504.461 468.523 504.058 465.773 503.251 463.28C502.518 460.787 500.978 458.807 498.631 457.34C496.358 455.8 492.911 455.03 488.291 455.03C485.945 455.03 484.405 455.8 483.671 457.34C482.938 458.807 482.498 461.447 482.351 465.26C482.278 467.093 482.205 469.587 482.131 472.74C482.131 475.82 482.131 479.56 482.131 483.96C482.131 485.793 482.645 486.893 483.671 487.26C484.698 487.627 486.128 487.81 487.961 487.81ZM610.929 525.87C610.269 525.87 608.949 525.32 606.969 524.22C605.063 523.12 603.229 521.36 601.469 518.94C601.176 518.573 600.259 517.473 598.719 515.64C597.253 513.807 595.346 511.533 592.999 508.82C590.726 506.033 588.233 503.027 585.519 499.8C582.806 496.573 580.093 493.347 577.379 490.12C574.666 486.893 572.136 483.923 569.789 481.21C567.443 478.423 565.463 476.113 563.849 474.28C562.309 472.373 561.356 471.2 560.989 470.76C560.476 470.1 560.036 469.66 559.669 469.44C559.303 469.147 558.973 469 558.679 469C558.313 469 558.056 469.293 557.909 469.88C557.763 470.393 557.689 470.87 557.689 471.31C557.616 474.903 557.543 479.047 557.469 483.74C557.396 488.433 557.323 493.273 557.249 498.26C557.176 503.247 557.139 508.013 557.139 512.56C557.139 514.54 557.616 516.373 558.569 518.06C559.596 519.747 561.466 520.847 564.179 521.36C565.426 521.58 566.343 521.837 566.929 522.13C567.516 522.423 567.809 522.827 567.809 523.34C567.809 523.78 567.516 524.073 566.929 524.22C566.343 524.44 565.573 524.55 564.619 524.55C562.639 524.55 561.136 524.477 560.109 524.33C559.156 524.257 558.276 524.183 557.469 524.11C556.736 524.037 555.673 524 554.279 524C552.959 524 551.933 524.037 551.199 524.11C550.466 524.183 549.623 524.257 548.669 524.33C547.716 524.477 546.249 524.55 544.269 524.55C543.316 524.55 542.546 524.44 541.959 524.22C541.373 524.073 541.079 523.78 541.079 523.34C541.079 522.827 541.373 522.423 541.959 522.13C542.546 521.837 543.463 521.543 544.709 521.25C546.836 520.663 548.376 519.6 549.329 518.06C550.283 516.447 550.869 514.503 551.089 512.23C551.383 509.443 551.676 505.777 551.969 501.23C552.263 496.61 552.519 491.477 552.739 485.83C552.959 480.11 553.069 474.243 553.069 468.23C553.069 464.343 552.043 461.557 549.989 459.87C548.009 458.183 545.406 456.827 542.179 455.8C541.886 455.653 541.226 455.36 540.199 454.92C539.246 454.407 538.769 453.82 538.769 453.16C538.769 452.5 539.099 452.097 539.759 451.95C540.419 451.73 540.933 451.62 541.299 451.62C543.426 451.693 545.149 451.767 546.469 451.84C547.789 451.84 548.963 451.877 549.989 451.95C551.016 452.023 552.153 452.097 553.399 452.17C554.646 452.17 556.259 452.17 558.239 452.17C558.899 452.17 559.413 452.353 559.779 452.72C560.146 453.087 560.513 453.527 560.879 454.04C561.173 454.48 562.126 455.727 563.739 457.78C565.426 459.76 567.479 462.29 569.899 465.37C572.393 468.377 575.106 471.677 578.039 475.27C580.973 478.79 583.906 482.347 586.839 485.94C589.773 489.46 592.486 492.76 594.979 495.84C597.473 498.847 599.526 501.34 601.139 503.32C602.826 505.3 603.816 506.473 604.109 506.84C604.403 507.133 604.806 507.573 605.319 508.16C605.906 508.747 606.419 509.04 606.859 509.04C607.519 509.04 607.886 508.27 607.959 506.73C607.959 505.703 607.959 503.76 607.959 500.9C608.033 497.967 608.069 494.447 608.069 490.34C608.143 486.16 608.179 481.65 608.179 476.81C608.179 471.97 608.179 467.02 608.179 461.96C608.106 460.493 607.336 459.173 605.869 458C604.403 456.827 603.046 456.13 601.799 455.91C600.553 455.69 599.416 455.397 598.389 455.03C597.363 454.663 596.849 454.223 596.849 453.71C596.849 453.27 597.363 452.977 598.389 452.83C599.416 452.61 600.406 452.5 601.359 452.5C602.093 452.5 602.789 452.5 603.449 452.5C604.183 452.5 604.879 452.5 605.539 452.5C606.273 452.5 606.969 452.5 607.629 452.5C609.389 452.5 610.783 452.5 611.809 452.5C612.836 452.427 613.936 452.353 615.109 452.28C616.356 452.207 618.079 452.17 620.279 452.17C621.233 452.17 622.003 452.28 622.589 452.5C623.176 452.647 623.469 452.94 623.469 453.38C623.469 454.407 622.259 455.14 619.839 455.58C617.126 456.093 615.329 456.753 614.449 457.56C613.569 458.367 613.056 459.687 612.909 461.52C612.909 461.887 612.873 463.317 612.799 465.81C612.799 468.303 612.799 471.457 612.799 475.27C612.799 479.083 612.763 483.19 612.689 487.59C612.689 491.99 612.689 496.39 612.689 500.79C612.689 505.117 612.689 509.003 612.689 512.45C612.689 514.21 612.726 515.823 612.799 517.29C612.946 518.683 613.056 519.893 613.129 520.92C613.203 521.873 613.239 522.607 613.239 523.12C613.239 524.293 612.983 525.027 612.469 525.32C612.029 525.687 611.516 525.87 610.929 525.87ZM627.538 524.55C626.585 524.55 625.815 524.403 625.228 524.11C624.642 523.89 624.348 523.56 624.348 523.12C624.348 522.607 624.642 522.167 625.228 521.8C625.888 521.36 626.805 520.957 627.978 520.59C629.885 520.003 631.645 519.123 633.258 517.95C634.872 516.777 636.265 514.833 637.438 512.12C639.492 507.427 641.362 503.027 643.048 498.92C644.808 494.813 646.458 490.78 647.998 486.82C649.538 482.86 651.115 478.753 652.728 474.5C654.415 470.173 656.175 465.48 658.008 460.42C658.375 459.393 658.705 458.367 658.998 457.34C659.292 456.313 659.475 455.213 659.548 454.04C660.208 453.82 660.868 453.6 661.528 453.38C662.188 453.16 662.848 452.83 663.508 452.39C664.168 451.95 664.608 451.29 664.828 450.41C665.122 449.53 665.378 448.943 665.598 448.65C665.672 448.577 665.745 448.54 665.818 448.54C665.965 448.54 666.075 448.613 666.148 448.76C666.295 449.053 666.405 449.42 666.478 449.86C666.625 450.3 666.772 450.74 666.918 451.18C668.678 456.753 670.512 462.437 672.418 468.23C674.325 474.023 676.158 479.633 677.918 485.06C679.752 490.413 681.402 495.253 682.868 499.58C684.408 503.833 685.618 507.28 686.498 509.92C687.525 512.853 688.625 515.053 689.798 516.52C690.972 517.987 692.182 519.013 693.428 519.6C694.748 520.187 696.142 520.627 697.608 520.92C698.855 521.14 699.772 521.507 700.358 522.02C700.945 522.46 701.238 522.937 701.238 523.45C701.238 523.89 700.945 524.183 700.358 524.33C699.772 524.477 699.002 524.55 698.048 524.55C697.022 524.55 695.628 524.477 693.868 524.33C692.108 524.257 690.238 524.147 688.258 524C686.278 523.927 684.445 523.89 682.758 523.89C681.365 523.89 679.935 523.89 678.468 523.89C677.002 523.89 675.645 523.927 674.398 524C673.152 524 672.088 524 671.208 524C670.255 524 669.485 523.89 668.898 523.67C668.312 523.45 668.018 523.12 668.018 522.68C668.018 522.167 668.385 521.727 669.118 521.36C669.852 520.993 670.695 520.737 671.648 520.59C674.068 520.223 675.792 519.6 676.818 518.72C677.845 517.84 678.358 516.813 678.358 515.64C678.358 514.54 678.102 512.963 677.588 510.91C677.148 508.783 676.598 506.547 675.938 504.2C675.278 501.78 674.655 499.653 674.068 497.82C673.922 497.233 673.628 496.903 673.188 496.83C672.822 496.683 672.125 496.61 671.098 496.61H650.308C650.015 496.61 649.685 496.757 649.318 497.05C649.025 497.27 648.732 497.783 648.438 498.59C648.218 499.323 647.852 500.497 647.338 502.11C646.825 503.65 646.312 505.3 645.798 507.06C645.285 508.82 644.845 510.397 644.478 511.79C644.112 513.183 643.928 514.063 643.928 514.43C643.928 516.043 644.552 517.4 645.798 518.5C647.045 519.527 648.548 520.26 650.308 520.7C652.728 521.36 653.938 522.093 653.938 522.9C653.938 523.34 653.645 523.67 653.058 523.89C652.472 524.037 651.702 524.11 650.748 524.11C649.795 524.11 648.402 524.073 646.568 524C644.735 523.927 642.792 523.89 640.738 523.89C638.318 523.89 635.972 524 633.698 524.22C631.425 524.44 629.372 524.55 627.538 524.55ZM653.278 492.98H670.328C671.355 492.98 671.868 492.797 671.868 492.43C671.868 492.283 671.832 492.137 671.758 491.99C671.758 491.77 671.722 491.55 671.648 491.33L663.068 464.49C662.628 463.17 662.298 462.51 662.078 462.51C661.932 462.51 661.638 463.133 661.198 464.38L651.188 491.33C651.042 491.77 650.968 492.063 650.968 492.21C650.968 492.577 651.152 492.797 651.518 492.87C651.958 492.943 652.545 492.98 653.278 492.98ZM706.78 524.55C705.827 524.55 705.057 524.403 704.47 524.11C703.957 523.89 703.7 523.597 703.7 523.23C703.7 522.57 704.03 522.13 704.69 521.91C705.424 521.617 705.9 521.433 706.12 521.36C708.98 520.773 711.18 519.93 712.72 518.83C714.26 517.657 715.03 515.86 715.03 513.44V462.4C715.03 460.64 714.847 459.357 714.48 458.55C714.114 457.67 713.454 457.047 712.5 456.68C711.547 456.24 710.154 455.873 708.32 455.58C705.9 455.14 704.69 454.407 704.69 453.38C704.69 452.94 704.984 452.647 705.57 452.5C706.157 452.28 706.927 452.17 707.88 452.17C709.86 452.17 711.437 452.207 712.61 452.28C713.857 452.353 715.03 452.427 716.13 452.5C717.23 452.5 718.587 452.5 720.2 452.5C722.034 452.5 723.61 452.5 724.93 452.5C726.25 452.427 727.607 452.353 729 452.28C730.394 452.207 732.08 452.17 734.06 452.17C735.014 452.17 735.784 452.28 736.37 452.5C736.957 452.647 737.25 452.94 737.25 453.38C737.25 453.893 736.957 454.333 736.37 454.7C735.784 455.067 734.867 455.36 733.62 455.58C730.907 456.093 728.597 456.717 726.69 457.45C724.784 458.11 723.83 459.503 723.83 461.63V513.44C723.83 515.713 724.344 517.4 725.37 518.5C726.397 519.6 728.707 520.15 732.3 520.15H745.94C747.92 520.15 749.644 519.857 751.11 519.27C752.65 518.61 753.787 517.95 754.52 517.29C755.987 516.043 757.05 514.943 757.71 513.99C758.444 512.963 759.287 511.46 760.24 509.48C760.387 509.04 760.68 508.38 761.12 507.5C761.634 506.62 762.147 506.18 762.66 506.18C763.1 506.18 763.43 506.4 763.65 506.84C763.87 507.28 763.98 507.72 763.98 508.16C763.98 508.233 763.944 508.343 763.87 508.49C763.87 508.563 763.87 508.637 763.87 508.71C763.357 510.617 762.88 512.34 762.44 513.88C762.074 515.42 761.744 516.887 761.45 518.28C761.23 519.673 761.047 521.14 760.9 522.68C760.827 523.193 760.68 523.633 760.46 524C760.314 524.367 759.947 524.55 759.36 524.55C755.694 524.55 752.174 524.513 748.8 524.44C745.427 524.367 742.164 524.293 739.01 524.22C735.93 524.22 732.96 524.183 730.1 524.11C727.24 524.037 724.417 524 721.63 524C719.797 524 717.707 524.037 715.36 524.11C713.087 524.183 711.07 524.257 709.31 524.33C707.624 524.477 706.78 524.55 706.78 524.55Z" fill="#E5E5E5"/>
<g filter="url(#filter0_d_486_61)">
<path d="M572 414H762V420H572V414Z" fill="#E5E5E5"/>
<path d="M572 414H762V420H572V414Z" stroke="#BE9C90"/>
</g>
<g filter="url(#filter1_d_486_61)">
<path d="M257.259 413.56H447.259V419.612H257.259V413.56Z" fill="#E5E5E5"/>
<path d="M257.259 413.56H447.259V419.612H257.259V413.56Z" stroke="#BE9C90"/>
</g>
<g filter="url(#filter2_d_486_61)">
<path d="M511.81 376.241C514.627 376.255 519.519 375.738 521.868 374.184C524.217 372.63 526.053 370.415 527.143 367.818C528.233 365.222 528.529 362.36 527.992 359.595C527.456 356.83 526.112 354.287 524.13 352.286C522.148 350.285 519.617 348.917 516.857 348.354C514.098 347.792 511.233 348.06 508.626 349.126C506.019 350.191 503.787 352.006 502.211 354.34C500.635 356.674 499.787 359.423 499.774 362.239L502.809 362.254C502.82 360.038 503.487 357.875 504.727 356.038C505.967 354.201 507.723 352.774 509.775 351.935C511.826 351.097 514.08 350.886 516.251 351.329C518.422 351.771 520.414 352.848 521.973 354.422C523.533 355.996 524.59 357.998 525.012 360.173C525.434 362.349 525.202 364.6 524.344 366.644C523.486 368.687 522.042 370.43 520.194 371.652C518.345 372.875 514.026 373.226 511.81 373.216L511.81 376.241Z" fill="#E5E5E5"/>
</g>
<g filter="url(#filter3_d_486_61)">
<path d="M515.845 374.224H511.81V394.397H515.845V383.779V374.224Z" fill="#E5E5E5"/>
</g>
<g filter="url(#filter4_d_486_61)">
<path d="M550.138 429.194C550.138 419.698 546.206 410.59 539.207 403.875C532.209 397.16 522.717 393.388 512.819 393.388C502.921 393.388 493.429 397.16 486.43 403.875C479.432 410.59 475.5 419.698 475.5 429.194H483.968C483.968 421.852 487.008 414.812 492.418 409.62C497.829 404.429 505.167 401.513 512.819 401.513C520.471 401.513 527.809 404.429 533.22 409.62C538.63 414.812 541.67 421.852 541.67 429.194H550.138Z" fill="#E5E5E5"/>
</g>
<path d="M259.448 524.64C258.339 524.64 257.443 524.512 256.76 524.256C256.077 524.085 255.736 523.744 255.736 523.232C255.736 522.208 257.144 521.44 259.96 520.928C263.203 520.331 265.592 519.349 267.128 517.984C268.664 516.619 269.432 514.4 269.432 511.328V453.728C269.432 450.656 268.792 448.48 267.512 447.2C266.317 445.92 264.099 444.981 260.856 444.384C259.405 444.128 258.339 443.787 257.656 443.36C256.973 442.933 256.632 442.421 256.632 441.824C256.632 441.312 256.973 440.971 257.656 440.8C258.339 440.544 259.235 440.416 260.344 440.416C263.587 440.416 266.317 440.459 268.536 440.544C270.84 440.629 273.059 440.715 275.192 440.8C277.411 440.8 280.013 440.8 283 440.8C285.816 440.8 288.76 440.8 291.832 440.8C294.989 440.715 297.891 440.672 300.536 440.672C303.437 440.587 305.869 440.544 307.832 440.544C309.88 440.459 311.075 440.416 311.416 440.416C311.843 440.416 312.312 440.501 312.824 440.672C313.336 440.843 313.635 441.141 313.72 441.568C314.147 443.957 314.573 446.347 315 448.736C315.427 451.04 315.64 453.045 315.64 454.752C315.64 455.52 315.427 456.032 315 456.288C314.659 456.544 314.275 456.672 313.848 456.672C313.421 456.672 313.123 456.587 312.952 456.416C312.781 456.16 312.611 455.819 312.44 455.392C312.013 453.941 311.587 452.576 311.16 451.296C310.733 449.931 310.221 448.949 309.624 448.352C308.429 446.987 307.107 446.091 305.656 445.664C304.205 445.152 302.669 444.896 301.048 444.896H284.28C283.597 444.896 282.659 445.28 281.464 446.048C280.269 446.816 279.672 447.797 279.672 448.992V476.128C279.672 476.896 279.885 477.579 280.312 478.176C280.824 478.688 281.379 478.944 281.976 478.944H294.648C297.123 478.944 298.829 478.517 299.768 477.664C300.707 476.725 301.475 475.061 302.072 472.672C302.584 470.795 303.352 469.856 304.376 469.856C304.717 469.856 305.059 470.027 305.4 470.368C305.827 470.709 306.04 471.221 306.04 471.904C306.04 472.245 305.997 473.013 305.912 474.208C305.912 475.403 305.869 476.64 305.784 477.92C305.699 479.2 305.656 480.181 305.656 480.864C305.656 481.717 305.656 482.869 305.656 484.32C305.741 485.685 305.784 487.008 305.784 488.288C305.869 489.568 305.912 490.379 305.912 490.72C305.912 491.317 305.827 491.829 305.656 492.256C305.571 492.683 305.272 492.896 304.76 492.896C303.48 492.896 302.499 491.531 301.816 488.8C301.304 486.837 300.621 485.387 299.768 484.448C298.915 483.509 297.635 483.04 295.928 483.04H284.024C282.573 483.04 281.464 483.253 280.696 483.68C280.013 484.021 279.672 484.917 279.672 486.368V510.944C279.672 514.187 280.355 516.448 281.72 517.728C283.085 518.923 285.219 519.52 288.12 519.52H297.592C300.323 519.52 302.584 519.392 304.376 519.136C306.253 518.795 307.875 518.197 309.24 517.344C310.605 516.405 311.8 515.168 312.824 513.632C313.933 512.096 315.171 510.048 316.536 507.488C316.792 506.976 317.091 506.549 317.432 506.208C317.773 505.867 318.157 505.739 318.584 505.824C319.011 505.909 319.352 506.123 319.608 506.464C319.864 506.72 319.992 507.104 319.992 507.616C319.992 508.384 319.779 509.749 319.352 511.712C318.925 513.589 318.371 515.552 317.688 517.6C317.091 519.648 316.536 521.269 316.024 522.464C315.768 523.061 315.512 523.573 315.256 524C315.085 524.427 314.744 524.64 314.232 524.64C310.136 524.64 306.339 524.597 302.84 524.512C299.341 524.427 296.013 524.341 292.856 524.256C289.699 524.171 286.584 524.085 283.512 524C280.525 523.915 277.411 523.872 274.168 523.872C272.291 523.872 270.669 523.915 269.304 524C267.939 524.171 266.531 524.299 265.08 524.384C263.629 524.555 261.752 524.64 259.448 524.64ZM346.79 524.55C345.837 524.55 345.067 524.44 344.48 524.22C343.893 524.073 343.6 523.78 343.6 523.34C343.6 522.827 343.893 522.423 344.48 522.13C345.067 521.837 345.983 521.58 347.23 521.36C350.017 520.847 352.143 519.967 353.61 518.72C355.077 517.4 355.81 515.42 355.81 512.78V470.1C355.81 466.727 355.737 464.16 355.59 462.4C355.443 460.567 355.187 459.283 354.82 458.55C354.527 457.817 354.087 457.413 353.5 457.34C352.473 457.12 351.373 457.01 350.2 457.01C349.1 456.937 347.597 456.9 345.69 456.9H340.52C338.76 456.9 337 457.267 335.24 458C333.553 458.66 332.307 459.723 331.5 461.19C331.28 461.557 330.913 462.107 330.4 462.84C329.887 463.5 329.337 464.087 328.75 464.6C328.163 465.113 327.577 465.37 326.99 465.37C326.697 465.37 326.477 465.223 326.33 464.93C326.257 464.637 326.22 464.307 326.22 463.94C326.22 463.207 326.403 462.473 326.77 461.74C327.797 459.613 328.53 457.743 328.97 456.13C329.483 454.443 329.887 452.463 330.18 450.19C330.327 448.943 330.583 448.21 330.95 447.99C331.39 447.77 331.757 447.66 332.05 447.66C332.343 447.66 332.783 448.1 333.37 448.98C334.03 449.86 334.507 450.593 334.8 451.18C335.24 451.913 336.23 452.463 337.77 452.83C339.383 453.197 340.96 453.38 342.5 453.38H381.22C383.787 453.38 385.877 453.233 387.49 452.94C389.103 452.647 390.497 452.243 391.67 451.73C392.55 451.29 393.247 450.813 393.76 450.3C394.347 449.787 395.08 449.53 395.96 449.53C396.18 449.53 396.363 449.823 396.51 450.41C396.657 450.923 396.73 451.473 396.73 452.06C396.73 452.427 396.657 452.94 396.51 453.6C396.437 454.26 396.363 454.773 396.29 455.14C396.07 456.46 395.85 457.413 395.63 458C395.483 458.587 395.373 459.1 395.3 459.54C395.227 459.98 395.19 460.677 395.19 461.63V462.95C395.19 463.61 395.043 464.38 394.75 465.26C394.457 466.067 394.017 466.47 393.43 466.47C392.917 466.47 392.513 466.067 392.22 465.26C391.927 464.453 391.633 463.353 391.34 461.96C391.047 460.42 390.167 459.21 388.7 458.33C387.233 457.377 384.74 456.9 381.22 456.9H370.11C368.497 456.9 367.287 457.12 366.48 457.56C365.673 458 365.16 459.1 364.94 460.86C364.72 462.62 364.61 465.517 364.61 469.55V512.78C364.61 515.42 365.38 517.4 366.92 518.72C368.46 519.967 370.587 520.847 373.3 521.36C374.547 521.58 375.463 521.837 376.05 522.13C376.637 522.423 376.93 522.827 376.93 523.34C376.93 523.78 376.637 524.073 376.05 524.22C375.463 524.44 374.693 524.55 373.74 524.55C371.76 524.55 370.11 524.477 368.79 524.33C367.543 524.257 366.333 524.183 365.16 524.11C363.987 524.037 362.557 524 360.87 524C359.037 524 357.423 524.037 356.03 524.11C354.71 524.183 353.317 524.257 351.85 524.33C350.457 524.477 348.77 524.55 346.79 524.55ZM404.201 524.55C403.248 524.55 402.478 524.44 401.891 524.22C401.305 524.073 401.011 523.78 401.011 523.34C401.011 522.46 402.221 521.8 404.641 521.36C407.428 520.847 409.481 520.003 410.801 518.83C412.121 517.657 412.781 515.75 412.781 513.11V463.61C412.781 460.97 412.231 459.1 411.131 458C410.105 456.9 408.198 456.093 405.411 455.58C404.165 455.36 403.248 455.067 402.661 454.7C402.075 454.333 401.781 453.893 401.781 453.38C401.781 452.94 402.075 452.647 402.661 452.5C403.248 452.28 404.018 452.17 404.971 452.17C407.758 452.17 410.105 452.207 412.011 452.28C413.991 452.353 415.898 452.427 417.731 452.5C419.638 452.5 421.875 452.5 424.441 452.5C426.861 452.5 429.391 452.5 432.031 452.5C434.745 452.427 437.238 452.39 439.511 452.39C442.005 452.317 444.095 452.28 445.781 452.28C447.541 452.207 448.568 452.17 448.861 452.17C449.228 452.17 449.631 452.243 450.071 452.39C450.511 452.537 450.768 452.793 450.841 453.16C451.208 455.213 451.575 457.267 451.941 459.32C452.308 461.3 452.491 463.023 452.491 464.49C452.491 465.15 452.308 465.59 451.941 465.81C451.648 466.03 451.318 466.14 450.951 466.14C450.585 466.14 450.328 466.067 450.181 465.92C450.035 465.7 449.888 465.407 449.741 465.04C449.375 463.793 449.008 462.62 448.641 461.52C448.275 460.347 447.835 459.503 447.321 458.99C446.295 457.817 445.158 457.047 443.911 456.68C442.665 456.24 441.345 456.02 439.951 456.02H425.541C424.955 456.02 424.148 456.35 423.121 457.01C422.095 457.67 421.581 458.513 421.581 459.54V482.86C421.581 483.52 421.765 484.107 422.131 484.62C422.571 485.06 423.048 485.28 423.561 485.28H434.451C436.578 485.28 438.045 484.913 438.851 484.18C439.658 483.373 440.318 481.943 440.831 479.89C441.271 478.277 441.931 477.47 442.811 477.47C443.105 477.47 443.398 477.617 443.691 477.91C444.058 478.203 444.241 478.643 444.241 479.23C444.241 479.523 444.205 480.183 444.131 481.21C444.131 482.237 444.095 483.3 444.021 484.4C443.948 485.5 443.911 486.343 443.911 486.93C443.911 487.663 443.911 488.653 443.911 489.9C443.985 491.073 444.021 492.21 444.021 493.31C444.095 494.41 444.131 495.107 444.131 495.4C444.131 495.913 444.058 496.353 443.911 496.72C443.838 497.087 443.581 497.27 443.141 497.27C442.041 497.27 441.198 496.097 440.611 493.75C440.171 492.063 439.585 490.817 438.851 490.01C438.118 489.203 437.018 488.8 435.551 488.8H425.321C424.075 488.8 423.121 488.983 422.461 489.35C421.875 489.643 421.581 490.413 421.581 491.66V512.78C421.581 515.567 422.168 517.51 423.341 518.61C424.515 519.637 426.348 520.15 428.841 520.15H436.981C439.328 520.15 441.271 520.04 442.811 519.82C444.425 519.527 445.818 519.013 446.991 518.28C448.165 517.473 449.191 516.41 450.071 515.09C451.025 513.77 452.088 512.01 453.261 509.81C453.481 509.37 453.738 509.003 454.031 508.71C454.325 508.417 454.655 508.307 455.021 508.38C455.388 508.453 455.681 508.637 455.901 508.93C456.121 509.15 456.231 509.48 456.231 509.92C456.231 510.58 456.048 511.753 455.681 513.44C455.315 515.053 454.838 516.74 454.251 518.5C453.738 520.26 453.261 521.653 452.821 522.68C452.601 523.193 452.381 523.633 452.161 524C452.015 524.367 451.721 524.55 451.281 524.55C447.761 524.55 444.498 524.513 441.491 524.44C438.485 524.367 435.625 524.293 432.911 524.22C430.198 524.147 427.521 524.073 424.881 524C422.315 523.927 419.638 523.89 416.851 523.89C415.238 523.89 413.845 523.927 412.671 524C411.498 524.147 410.288 524.257 409.041 524.33C407.795 524.477 406.181 524.55 404.201 524.55ZM529.101 526.31C527.048 526.31 525.105 526.127 523.271 525.76C521.438 525.467 519.751 524.88 518.211 524C516.671 523.12 515.241 521.91 513.921 520.37C512.161 518.17 510.475 516.08 508.861 514.1C507.248 512.047 505.525 509.7 503.691 507.06C501.931 504.42 499.768 501.047 497.201 496.94C496.101 495.107 494.525 493.677 492.471 492.65C490.858 491.843 489.245 491.293 487.631 491C486.091 490.633 484.808 490.413 483.781 490.34C483.195 490.267 482.755 490.45 482.461 490.89C482.241 491.33 482.131 491.88 482.131 492.54V511.9C482.131 514.247 482.681 516.3 483.781 518.06C484.881 519.747 486.788 520.847 489.501 521.36C490.748 521.58 491.665 521.837 492.251 522.13C492.838 522.423 493.131 522.827 493.131 523.34C493.131 523.78 492.838 524.073 492.251 524.22C491.665 524.44 490.895 524.55 489.941 524.55C487.961 524.55 486.421 524.477 485.321 524.33C484.295 524.183 483.341 524.073 482.461 524C481.655 523.853 480.555 523.78 479.161 523.78C477.328 523.78 475.678 523.853 474.211 524C472.818 524.073 471.388 524.183 469.921 524.33C468.528 524.477 466.841 524.55 464.861 524.55C463.908 524.55 463.138 524.44 462.551 524.22C461.965 524.073 461.671 523.78 461.671 523.34C461.671 522.46 462.881 521.8 465.301 521.36C468.088 520.847 470.105 520.003 471.351 518.83C472.671 517.657 473.331 515.713 473.331 513V466.14C473.331 463.353 473.185 461.263 472.891 459.87C472.671 458.403 472.085 457.377 471.131 456.79C470.251 456.203 468.748 455.8 466.621 455.58C465.375 455.433 464.458 455.177 463.871 454.81C463.285 454.37 462.991 453.893 462.991 453.38C462.991 452.94 463.285 452.647 463.871 452.5C464.458 452.28 465.228 452.17 466.181 452.17C468.161 452.17 469.628 452.17 470.581 452.17C471.608 452.17 472.561 452.207 473.441 452.28C474.321 452.28 475.495 452.28 476.961 452.28C478.355 452.28 479.601 452.243 480.701 452.17C481.801 452.023 483.011 451.913 484.331 451.84C485.725 451.767 487.485 451.73 489.611 451.73C497.678 451.73 503.801 453.233 507.981 456.24C512.235 459.247 514.361 463.757 514.361 469.77C514.361 473.07 513.701 475.93 512.381 478.35C511.061 480.697 509.411 482.677 507.431 484.29C505.451 485.903 503.435 487.223 501.381 488.25C501.088 488.323 500.941 488.507 500.941 488.8C501.015 489.02 501.161 489.313 501.381 489.68C503.655 493.127 505.818 496.39 507.871 499.47C509.998 502.55 512.308 505.557 514.801 508.49C517.295 511.423 520.265 514.467 523.711 517.62C525.618 519.307 527.561 520.333 529.541 520.7C531.521 521.067 533.795 521.25 536.361 521.25C537.461 521.25 538.011 521.653 538.011 522.46C538.011 523.56 537.461 524.367 536.361 524.88C535.261 525.467 534.015 525.833 532.621 525.98C531.228 526.2 530.055 526.31 529.101 526.31ZM487.961 487.81C491.335 487.81 494.231 487.04 496.651 485.5C499.145 483.96 501.051 481.943 502.371 479.45C503.765 476.957 504.461 474.317 504.461 471.53C504.461 468.523 504.058 465.773 503.251 463.28C502.518 460.787 500.978 458.807 498.631 457.34C496.358 455.8 492.911 455.03 488.291 455.03C485.945 455.03 484.405 455.8 483.671 457.34C482.938 458.807 482.498 461.447 482.351 465.26C482.278 467.093 482.205 469.587 482.131 472.74C482.131 475.82 482.131 479.56 482.131 483.96C482.131 485.793 482.645 486.893 483.671 487.26C484.698 487.627 486.128 487.81 487.961 487.81ZM610.929 525.87C610.269 525.87 608.949 525.32 606.969 524.22C605.063 523.12 603.229 521.36 601.469 518.94C601.176 518.573 600.259 517.473 598.719 515.64C597.253 513.807 595.346 511.533 592.999 508.82C590.726 506.033 588.233 503.027 585.519 499.8C582.806 496.573 580.093 493.347 577.379 490.12C574.666 486.893 572.136 483.923 569.789 481.21C567.443 478.423 565.463 476.113 563.849 474.28C562.309 472.373 561.356 471.2 560.989 470.76C560.476 470.1 560.036 469.66 559.669 469.44C559.303 469.147 558.973 469 558.679 469C558.313 469 558.056 469.293 557.909 469.88C557.763 470.393 557.689 470.87 557.689 471.31C557.616 474.903 557.543 479.047 557.469 483.74C557.396 488.433 557.323 493.273 557.249 498.26C557.176 503.247 557.139 508.013 557.139 512.56C557.139 514.54 557.616 516.373 558.569 518.06C559.596 519.747 561.466 520.847 564.179 521.36C565.426 521.58 566.343 521.837 566.929 522.13C567.516 522.423 567.809 522.827 567.809 523.34C567.809 523.78 567.516 524.073 566.929 524.22C566.343 524.44 565.573 524.55 564.619 524.55C562.639 524.55 561.136 524.477 560.109 524.33C559.156 524.257 558.276 524.183 557.469 524.11C556.736 524.037 555.673 524 554.279 524C552.959 524 551.933 524.037 551.199 524.11C550.466 524.183 549.623 524.257 548.669 524.33C547.716 524.477 546.249 524.55 544.269 524.55C543.316 524.55 542.546 524.44 541.959 524.22C541.373 524.073 541.079 523.78 541.079 523.34C541.079 522.827 541.373 522.423 541.959 522.13C542.546 521.837 543.463 521.543 544.709 521.25C546.836 520.663 548.376 519.6 549.329 518.06C550.283 516.447 550.869 514.503 551.089 512.23C551.383 509.443 551.676 505.777 551.969 501.23C552.263 496.61 552.519 491.477 552.739 485.83C552.959 480.11 553.069 474.243 553.069 468.23C553.069 464.343 552.043 461.557 549.989 459.87C548.009 458.183 545.406 456.827 542.179 455.8C541.886 455.653 541.226 455.36 540.199 454.92C539.246 454.407 538.769 453.82 538.769 453.16C538.769 452.5 539.099 452.097 539.759 451.95C540.419 451.73 540.933 451.62 541.299 451.62C543.426 451.693 545.149 451.767 546.469 451.84C547.789 451.84 548.963 451.877 549.989 451.95C551.016 452.023 552.153 452.097 553.399 452.17C554.646 452.17 556.259 452.17 558.239 452.17C558.899 452.17 559.413 452.353 559.779 452.72C560.146 453.087 560.513 453.527 560.879 454.04C561.173 454.48 562.126 455.727 563.739 457.78C565.426 459.76 567.479 462.29 569.899 465.37C572.393 468.377 575.106 471.677 578.039 475.27C580.973 478.79 583.906 482.347 586.839 485.94C589.773 489.46 592.486 492.76 594.979 495.84C597.473 498.847 599.526 501.34 601.139 503.32C602.826 505.3 603.816 506.473 604.109 506.84C604.403 507.133 604.806 507.573 605.319 508.16C605.906 508.747 606.419 509.04 606.859 509.04C607.519 509.04 607.886 508.27 607.959 506.73C607.959 505.703 607.959 503.76 607.959 500.9C608.033 497.967 608.069 494.447 608.069 490.34C608.143 486.16 608.179 481.65 608.179 476.81C608.179 471.97 608.179 467.02 608.179 461.96C608.106 460.493 607.336 459.173 605.869 458C604.403 456.827 603.046 456.13 601.799 455.91C600.553 455.69 599.416 455.397 598.389 455.03C597.363 454.663 596.849 454.223 596.849 453.71C596.849 453.27 597.363 452.977 598.389 452.83C599.416 452.61 600.406 452.5 601.359 452.5C602.093 452.5 602.789 452.5 603.449 452.5C604.183 452.5 604.879 452.5 605.539 452.5C606.273 452.5 606.969 452.5 607.629 452.5C609.389 452.5 610.783 452.5 611.809 452.5C612.836 452.427 613.936 452.353 615.109 452.28C616.356 452.207 618.079 452.17 620.279 452.17C621.233 452.17 622.003 452.28 622.589 452.5C623.176 452.647 623.469 452.94 623.469 453.38C623.469 454.407 622.259 455.14 619.839 455.58C617.126 456.093 615.329 456.753 614.449 457.56C613.569 458.367 613.056 459.687 612.909 461.52C612.909 461.887 612.873 463.317 612.799 465.81C612.799 468.303 612.799 471.457 612.799 475.27C612.799 479.083 612.763 483.19 612.689 487.59C612.689 491.99 612.689 496.39 612.689 500.79C612.689 505.117 612.689 509.003 612.689 512.45C612.689 514.21 612.726 515.823 612.799 517.29C612.946 518.683 613.056 519.893 613.129 520.92C613.203 521.873 613.239 522.607 613.239 523.12C613.239 524.293 612.983 525.027 612.469 525.32C612.029 525.687 611.516 525.87 610.929 525.87ZM627.538 524.55C626.585 524.55 625.815 524.403 625.228 524.11C624.642 523.89 624.348 523.56 624.348 523.12C624.348 522.607 624.642 522.167 625.228 521.8C625.888 521.36 626.805 520.957 627.978 520.59C629.885 520.003 631.645 519.123 633.258 517.95C634.872 516.777 636.265 514.833 637.438 512.12C639.492 507.427 641.362 503.027 643.048 498.92C644.808 494.813 646.458 490.78 647.998 486.82C649.538 482.86 651.115 478.753 652.728 474.5C654.415 470.173 656.175 465.48 658.008 460.42C658.375 459.393 658.705 458.367 658.998 457.34C659.292 456.313 659.475 455.213 659.548 454.04C660.208 453.82 660.868 453.6 661.528 453.38C662.188 453.16 662.848 452.83 663.508 452.39C664.168 451.95 664.608 451.29 664.828 450.41C665.122 449.53 665.378 448.943 665.598 448.65C665.672 448.577 665.745 448.54 665.818 448.54C665.965 448.54 666.075 448.613 666.148 448.76C666.295 449.053 666.405 449.42 666.478 449.86C666.625 450.3 666.772 450.74 666.918 451.18C668.678 456.753 670.512 462.437 672.418 468.23C674.325 474.023 676.158 479.633 677.918 485.06C679.752 490.413 681.402 495.253 682.868 499.58C684.408 503.833 685.618 507.28 686.498 509.92C687.525 512.853 688.625 515.053 689.798 516.52C690.972 517.987 692.182 519.013 693.428 519.6C694.748 520.187 696.142 520.627 697.608 520.92C698.855 521.14 699.772 521.507 700.358 522.02C700.945 522.46 701.238 522.937 701.238 523.45C701.238 523.89 700.945 524.183 700.358 524.33C699.772 524.477 699.002 524.55 698.048 524.55C697.022 524.55 695.628 524.477 693.868 524.33C692.108 524.257 690.238 524.147 688.258 524C686.278 523.927 684.445 523.89 682.758 523.89C681.365 523.89 679.935 523.89 678.468 523.89C677.002 523.89 675.645 523.927 674.398 524C673.152 524 672.088 524 671.208 524C670.255 524 669.485 523.89 668.898 523.67C668.312 523.45 668.018 523.12 668.018 522.68C668.018 522.167 668.385 521.727 669.118 521.36C669.852 520.993 670.695 520.737 671.648 520.59C674.068 520.223 675.792 519.6 676.818 518.72C677.845 517.84 678.358 516.813 678.358 515.64C678.358 514.54 678.102 512.963 677.588 510.91C677.148 508.783 676.598 506.547 675.938 504.2C675.278 501.78 674.655 499.653 674.068 497.82C673.922 497.233 673.628 496.903 673.188 496.83C672.822 496.683 672.125 496.61 671.098 496.61H650.308C650.015 496.61 649.685 496.757 649.318 497.05C649.025 497.27 648.732 497.783 648.438 498.59C648.218 499.323 647.852 500.497 647.338 502.11C646.825 503.65 646.312 505.3 645.798 507.06C645.285 508.82 644.845 510.397 644.478 511.79C644.112 513.183 643.928 514.063 643.928 514.43C643.928 516.043 644.552 517.4 645.798 518.5C647.045 519.527 648.548 520.26 650.308 520.7C652.728 521.36 653.938 522.093 653.938 522.9C653.938 523.34 653.645 523.67 653.058 523.89C652.472 524.037 651.702 524.11 650.748 524.11C649.795 524.11 648.402 524.073 646.568 524C644.735 523.927 642.792 523.89 640.738 523.89C638.318 523.89 635.972 524 633.698 524.22C631.425 524.44 629.372 524.55 627.538 524.55ZM653.278 492.98H670.328C671.355 492.98 671.868 492.797 671.868 492.43C671.868 492.283 671.832 492.137 671.758 491.99C671.758 491.77 671.722 491.55 671.648 491.33L663.068 464.49C662.628 463.17 662.298 462.51 662.078 462.51C661.932 462.51 661.638 463.133 661.198 464.38L651.188 491.33C651.042 491.77 650.968 492.063 650.968 492.21C650.968 492.577 651.152 492.797 651.518 492.87C651.958 492.943 652.545 492.98 653.278 492.98ZM706.78 524.55C705.827 524.55 705.057 524.403 704.47 524.11C703.957 523.89 703.7 523.597 703.7 523.23C703.7 522.57 704.03 522.13 704.69 521.91C705.424 521.617 705.9 521.433 706.12 521.36C708.98 520.773 711.18 519.93 712.72 518.83C714.26 517.657 715.03 515.86 715.03 513.44V462.4C715.03 460.64 714.847 459.357 714.48 458.55C714.114 457.67 713.454 457.047 712.5 456.68C711.547 456.24 710.154 455.873 708.32 455.58C705.9 455.14 704.69 454.407 704.69 453.38C704.69 452.94 704.984 452.647 705.57 452.5C706.157 452.28 706.927 452.17 707.88 452.17C709.86 452.17 711.437 452.207 712.61 452.28C713.857 452.353 715.03 452.427 716.13 452.5C717.23 452.5 718.587 452.5 720.2 452.5C722.034 452.5 723.61 452.5 724.93 452.5C726.25 452.427 727.607 452.353 729 452.28C730.394 452.207 732.08 452.17 734.06 452.17C735.014 452.17 735.784 452.28 736.37 452.5C736.957 452.647 737.25 452.94 737.25 453.38C737.25 453.893 736.957 454.333 736.37 454.7C735.784 455.067 734.867 455.36 733.62 455.58C730.907 456.093 728.597 456.717 726.69 457.45C724.784 458.11 723.83 459.503 723.83 461.63V513.44C723.83 515.713 724.344 517.4 725.37 518.5C726.397 519.6 728.707 520.15 732.3 520.15H745.94C747.92 520.15 749.644 519.857 751.11 519.27C752.65 518.61 753.787 517.95 754.52 517.29C755.987 516.043 757.05 514.943 757.71 513.99C758.444 512.963 759.287 511.46 760.24 509.48C760.387 509.04 760.68 508.38 761.12 507.5C761.634 506.62 762.147 506.18 762.66 506.18C763.1 506.18 763.43 506.4 763.65 506.84C763.87 507.28 763.98 507.72 763.98 508.16C763.98 508.233 763.944 508.343 763.87 508.49C763.87 508.563 763.87 508.637 763.87 508.71C763.357 510.617 762.88 512.34 762.44 513.88C762.074 515.42 761.744 516.887 761.45 518.28C761.23 519.673 761.047 521.14 760.9 522.68C760.827 523.193 760.68 523.633 760.46 524C760.314 524.367 759.947 524.55 759.36 524.55C755.694 524.55 752.174 524.513 748.8 524.44C745.427 524.367 742.164 524.293 739.01 524.22C735.93 524.22 732.96 524.183 730.1 524.11C727.24 524.037 724.417 524 721.63 524C719.797 524 717.707 524.037 715.36 524.11C713.087 524.183 711.07 524.257 709.31 524.33C707.624 524.477 706.78 524.55 706.78 524.55Z" fill="#E5E5E5"/>
<g filter="url(#filter5_d_486_61)">
<path d="M572 414H762V420H572V414Z" fill="#E5E5E5"/>
</g>
<g filter="url(#filter6_d_486_61)">
<path d="M257.259 413.56H447.259V419.612H257.259V413.56Z" fill="#E5E5E5"/>
</g>
<g filter="url(#filter7_d_486_61)">
<path d="M511.81 376.241C514.627 376.255 519.519 375.738 521.868 374.184C524.217 372.63 526.053 370.415 527.143 367.818C528.233 365.222 528.529 362.36 527.992 359.595C527.456 356.83 526.112 354.287 524.13 352.286C522.148 350.285 519.617 348.917 516.857 348.354C514.098 347.792 511.233 348.06 508.626 349.126C506.019 350.191 503.787 352.006 502.211 354.34C500.635 356.674 499.787 359.423 499.774 362.239L502.809 362.254C502.82 360.038 503.487 357.875 504.727 356.038C505.967 354.201 507.723 352.774 509.775 351.935C511.826 351.097 514.08 350.886 516.251 351.329C518.422 351.771 520.414 352.848 521.973 354.422C523.533 355.996 524.59 357.998 525.012 360.173C525.434 362.349 525.202 364.6 524.344 366.644C523.486 368.687 522.042 370.43 520.194 371.652C518.345 372.875 514.026 373.226 511.81 373.216L511.81 376.241Z" fill="#E5E5E5"/>
</g>
<g filter="url(#filter8_d_486_61)">
<path d="M515.845 374.224H511.81V394.397H515.845V383.779V374.224Z" fill="#E5E5E5"/>
</g>
<g filter="url(#filter9_d_486_61)">
<path d="M550.138 429.194C550.138 419.698 546.206 410.59 539.207 403.875C532.209 397.16 522.717 393.388 512.819 393.388C502.921 393.388 493.429 397.16 486.43 403.875C479.432 410.59 475.5 419.698 475.5 429.194H483.968C483.968 421.852 487.008 414.812 492.418 409.62C497.829 404.429 505.167 401.513 512.819 401.513C520.471 401.513 527.809 404.429 533.22 409.62C538.63 414.812 541.67 421.852 541.67 429.194H550.138Z" fill="#E5E5E5"/>
</g>
<defs>
<filter id="filter0_d_486_61" x="567.5" y="413.5" width="199" height="15" filterUnits="userSpaceOnUse" color-interpolation-filters="sRGB">
<feFlood flood-opacity="0" result="BackgroundImageFix"/>
<feColorMatrix in="SourceAlpha" type="matrix" values="0 0 0 0 0 0 0 0 0 0 0 0 0 0 0 0 0 0 127 0" result="hardAlpha"/>
<feOffset dy="4"/>
<feGaussianBlur stdDeviation="2"/>
<feComposite in2="hardAlpha" operator="out"/>
<feColorMatrix type="matrix" values="0 0 0 0 0 0 0 0 0 0 0 0 0 0 0 0 0 0 0.25 0"/>
<feBlend mode="normal" in2="BackgroundImageFix" result="effect1_dropShadow_486_61"/>
<feBlend mode="normal" in="SourceGraphic" in2="effect1_dropShadow_486_61" result="shape"/>
</filter>
<filter id="filter1_d_486_61" x="252.759" y="413.06" width="199" height="15.0518" filterUnits="userSpaceOnUse" color-interpolation-filters="sRGB">
<feFlood flood-opacity="0" result="BackgroundImageFix"/>
<feColorMatrix in="SourceAlpha" type="matrix" values="0 0 0 0 0 0 0 0 0 0 0 0 0 0 0 0 0 0 127 0" result="hardAlpha"/>
<feOffset dy="4"/>
<feGaussianBlur stdDeviation="2"/>
<feComposite in2="hardAlpha" operator="out"/>
<feColorMatrix type="matrix" values="0 0 0 0 0 0 0 0 0 0 0 0 0 0 0 0 0 0 0.25 0"/>
<feBlend mode="normal" in2="BackgroundImageFix" result="effect1_dropShadow_486_61"/>
<feBlend mode="normal" in="SourceGraphic" in2="effect1_dropShadow_486_61" result="shape"/>
</filter>
<filter id="filter2_d_486_61" x="495.774" y="348.067" width="36.479" height="36.1743" filterUnits="userSpaceOnUse" color-interpolation-filters="sRGB">
<feFlood flood-opacity="0" result="BackgroundImageFix"/>
<feColorMatrix in="SourceAlpha" type="matrix" values="0 0 0 0 0 0 0 0 0 0 0 0 0 0 0 0 0 0 127 0" result="hardAlpha"/>
<feOffset dy="4"/>
<feGaussianBlur stdDeviation="2"/>
<feComposite in2="hardAlpha" operator="out"/>
<feColorMatrix type="matrix" values="0 0 0 0 0 0 0 0 0 0 0 0 0 0 0 0 0 0 0.25 0"/>
<feBlend mode="normal" in2="BackgroundImageFix" result="effect1_dropShadow_486_61"/>
<feBlend mode="normal" in="SourceGraphic" in2="effect1_dropShadow_486_61" result="shape"/>
</filter>
<filter id="filter3_d_486_61" x="507.81" y="374.224" width="12.0344" height="28.1724" filterUnits="userSpaceOnUse" color-interpolation-filters="sRGB">
<feFlood flood-opacity="0" result="BackgroundImageFix"/>
<feColorMatrix in="SourceAlpha" type="matrix" values="0 0 0 0 0 0 0 0 0 0 0 0 0 0 0 0 0 0 127 0" result="hardAlpha"/>
<feOffset dy="4"/>
<feGaussianBlur stdDeviation="2"/>
<feComposite in2="hardAlpha" operator="out"/>
<feColorMatrix type="matrix" values="0 0 0 0 0 0 0 0 0 0 0 0 0 0 0 0 0 0 0.25 0"/>
<feBlend mode="normal" in2="BackgroundImageFix" result="effect1_dropShadow_486_61"/>
<feBlend mode="normal" in="SourceGraphic" in2="effect1_dropShadow_486_61" result="shape"/>
</filter>
<filter id="filter4_d_486_61" x="471.5" y="393.388" width="82.6379" height="43.806" filterUnits="userSpaceOnUse" color-interpolation-filters="sRGB">
<feFlood flood-opacity="0" result="BackgroundImageFix"/>
<feColorMatrix in="SourceAlpha" type="matrix" values="0 0 0 0 0 0 0 0 0 0 0 0 0 0 0 0 0 0 127 0" result="hardAlpha"/>
<feOffset dy="4"/>
<feGaussianBlur stdDeviation="2"/>
<feComposite in2="hardAlpha" operator="out"/>
<feColorMatrix type="matrix" values="0 0 0 0 0 0 0 0 0 0 0 0 0 0 0 0 0 0 0.25 0"/>
<feBlend mode="normal" in2="BackgroundImageFix" result="effect1_dropShadow_486_61"/>
<feBlend mode="normal" in="SourceGraphic" in2="effect1_dropShadow_486_61" result="shape"/>
</filter>
<filter id="filter5_d_486_61" x="568" y="414" width="198" height="14" filterUnits="userSpaceOnUse" color-interpolation-filters="sRGB">
<feFlood flood-opacity="0" result="BackgroundImageFix"/>
<feColorMatrix in="SourceAlpha" type="matrix" values="0 0 0 0 0 0 0 0 0 0 0 0 0 0 0 0 0 0 127 0" result="hardAlpha"/>
<feOffset dy="4"/>
<feGaussianBlur stdDeviation="2"/>
<feComposite in2="hardAlpha" operator="out"/>
<feColorMatrix type="matrix" values="0 0 0 0 0 0 0 0 0 0 0 0 0 0 0 0 0 0 0.25 0"/>
<feBlend mode="normal" in2="BackgroundImageFix" result="effect1_dropShadow_486_61"/>
<feBlend mode="normal" in="SourceGraphic" in2="effect1_dropShadow_486_61" result="shape"/>
</filter>
<filter id="filter6_d_486_61" x="253.259" y="413.56" width="198" height="14.0518" filterUnits="userSpaceOnUse" color-interpolation-filters="sRGB">
<feFlood flood-opacity="0" result="BackgroundImageFix"/>
<feColorMatrix in="SourceAlpha" type="matrix" values="0 0 0 0 0 0 0 0 0 0 0 0 0 0 0 0 0 0 127 0" result="hardAlpha"/>
<feOffset dy="4"/>
<feGaussianBlur stdDeviation="2"/>
<feComposite in2="hardAlpha" operator="out"/>
<feColorMatrix type="matrix" values="0 0 0 0 0 0 0 0 0 0 0 0 0 0 0 0 0 0 0.25 0"/>
<feBlend mode="normal" in2="BackgroundImageFix" result="effect1_dropShadow_486_61"/>
<feBlend mode="normal" in="SourceGraphic" in2="effect1_dropShadow_486_61" result="shape"/>
</filter>
<filter id="filter7_d_486_61" x="495.774" y="348.067" width="36.479" height="36.1743" filterUnits="userSpaceOnUse" color-interpolation-filters="sRGB">
<feFlood flood-opacity="0" result="BackgroundImageFix"/>
<feColorMatrix in="SourceAlpha" type="matrix" values="0 0 0 0 0 0 0 0 0 0 0 0 0 0 0 0 0 0 127 0" result="hardAlpha"/>
<feOffset dy="4"/>
<feGaussianBlur stdDeviation="2"/>
<feComposite in2="hardAlpha" operator="out"/>
<feColorMatrix type="matrix" values="0 0 0 0 0 0 0 0 0 0 0 0 0 0 0 0 0 0 0.25 0"/>
<feBlend mode="normal" in2="BackgroundImageFix" result="effect1_dropShadow_486_61"/>
<feBlend mode="normal" in="SourceGraphic" in2="effect1_dropShadow_486_61" result="shape"/>
</filter>
<filter id="filter8_d_486_61" x="507.81" y="374.224" width="12.0344" height="28.1724" filterUnits="userSpaceOnUse" color-interpolation-filters="sRGB">
<feFlood flood-opacity="0" result="BackgroundImageFix"/>
<feColorMatrix in="SourceAlpha" type="matrix" values="0 0 0 0 0 0 0 0 0 0 0 0 0 0 0 0 0 0 127 0" result="hardAlpha"/>
<feOffset dy="4"/>
<feGaussianBlur stdDeviation="2"/>
<feComposite in2="hardAlpha" operator="out"/>
<feColorMatrix type="matrix" values="0 0 0 0 0 0 0 0 0 0 0 0 0 0 0 0 0 0 0.25 0"/>
<feBlend mode="normal" in2="BackgroundImageFix" result="effect1_dropShadow_486_61"/>
<feBlend mode="normal" in="SourceGraphic" in2="effect1_dropShadow_486_61" result="shape"/>
</filter>
<filter id="filter9_d_486_61" x="471.5" y="393.388" width="82.6379" height="43.806" filterUnits="userSpaceOnUse" color-interpolation-filters="sRGB">
<feFlood flood-opacity="0" result="BackgroundImageFix"/>
<feColorMatrix in="SourceAlpha" type="matrix" values="0 0 0 0 0 0 0 0 0 0 0 0 0 0 0 0 0 0 127 0" result="hardAlpha"/>
<feOffset dy="4"/>
<feGaussianBlur stdDeviation="2"/>
<feComposite in2="hardAlpha" operator="out"/>
<feColorMatrix type="matrix" values="0 0 0 0 0 0 0 0 0 0 0 0 0 0 0 0 0 0 0.25 0"/>
<feBlend mode="normal" in2="BackgroundImageFix" result="effect1_dropShadow_486_61"/>
<feBlend mode="normal" in="SourceGraphic" in2="effect1_dropShadow_486_61" result="shape"/>
</filter>
</defs>
</svg>
