<svg width="517" height="179" viewBox="0 0 517 179" fill="none" xmlns="http://www.w3.org/2000/svg">
<path d="M8.448 176.64C7.33867 176.64 6.44267 176.512 5.76 176.256C5.07733 176.085 4.736 175.744 4.736 175.232C4.736 174.208 6.144 173.44 8.96 172.928C12.2027 172.331 14.592 171.349 16.128 169.984C17.664 168.619 18.432 166.4 18.432 163.328V105.728C18.432 102.656 17.792 100.48 16.512 99.2C15.3173 97.92 13.0987 96.9813 9.856 96.384C8.40533 96.128 7.33867 95.7867 6.656 95.36C5.97333 94.9333 5.632 94.4213 5.632 93.824C5.632 93.312 5.97333 92.9707 6.656 92.8C7.33867 92.544 8.23467 92.416 9.344 92.416C12.5867 92.416 15.3173 92.4587 17.536 92.544C19.84 92.6293 22.0587 92.7147 24.192 92.8C26.4107 92.8 29.0133 92.8 32 92.8C34.816 92.8 37.76 92.8 40.832 92.8C43.9893 92.7147 46.8907 92.672 49.536 92.672C52.4373 92.5867 54.8693 92.544 56.832 92.544C58.88 92.4587 60.0747 92.416 60.416 92.416C60.8427 92.416 61.312 92.5013 61.824 92.672C62.336 92.8427 62.6347 93.1413 62.72 93.568C63.1467 95.9573 63.5733 98.3467 64 100.736C64.4267 103.04 64.64 105.045 64.64 106.752C64.64 107.52 64.4267 108.032 64 108.288C63.6587 108.544 63.2747 108.672 62.848 108.672C62.4213 108.672 62.1227 108.587 61.952 108.416C61.7813 108.16 61.6107 107.819 61.44 107.392C61.0133 105.941 60.5867 104.576 60.16 103.296C59.7333 101.931 59.2213 100.949 58.624 100.352C57.4293 98.9867 56.1067 98.0907 54.656 97.664C53.2053 97.152 51.6693 96.896 50.048 96.896H33.28C32.5973 96.896 31.6587 97.28 30.464 98.048C29.2693 98.816 28.672 99.7973 28.672 100.992V128.128C28.672 128.896 28.8853 129.579 29.312 130.176C29.824 130.688 30.3787 130.944 30.976 130.944H43.648C46.1227 130.944 47.8293 130.517 48.768 129.664C49.7067 128.725 50.4747 127.061 51.072 124.672C51.584 122.795 52.352 121.856 53.376 121.856C53.7173 121.856 54.0587 122.027 54.4 122.368C54.8267 122.709 55.04 123.221 55.04 123.904C55.04 124.245 54.9973 125.013 54.912 126.208C54.912 127.403 54.8693 128.64 54.784 129.92C54.6987 131.2 54.656 132.181 54.656 132.864C54.656 133.717 54.656 134.869 54.656 136.32C54.7413 137.685 54.784 139.008 54.784 140.288C54.8693 141.568 54.912 142.379 54.912 142.72C54.912 143.317 54.8267 143.829 54.656 144.256C54.5707 144.683 54.272 144.896 53.76 144.896C52.48 144.896 51.4987 143.531 50.816 140.8C50.304 138.837 49.6213 137.387 48.768 136.448C47.9147 135.509 46.6347 135.04 44.928 135.04H33.024C31.5733 135.04 30.464 135.253 29.696 135.68C29.0133 136.021 28.672 136.917 28.672 138.368V162.944C28.672 166.187 29.3547 168.448 30.72 169.728C32.0853 170.923 34.2187 171.52 37.12 171.52H46.592C49.3227 171.52 51.584 171.392 53.376 171.136C55.2533 170.795 56.8747 170.197 58.24 169.344C59.6053 168.405 60.8 167.168 61.824 165.632C62.9333 164.096 64.1707 162.048 65.536 159.488C65.792 158.976 66.0907 158.549 66.432 158.208C66.7733 157.867 67.1573 157.739 67.584 157.824C68.0107 157.909 68.352 158.123 68.608 158.464C68.864 158.72 68.992 159.104 68.992 159.616C68.992 160.384 68.7787 161.749 68.352 163.712C67.9253 165.589 67.3707 167.552 66.688 169.6C66.0907 171.648 65.536 173.269 65.024 174.464C64.768 175.061 64.512 175.573 64.256 176C64.0853 176.427 63.744 176.64 63.232 176.64C59.136 176.64 55.3387 176.597 51.84 176.512C48.3413 176.427 45.0133 176.341 41.856 176.256C38.6987 176.171 35.584 176.085 32.512 176C29.5253 175.915 26.4107 175.872 23.168 175.872C21.2907 175.872 19.6693 175.915 18.304 176C16.9387 176.171 15.5307 176.299 14.08 176.384C12.6293 176.555 10.752 176.64 8.448 176.64ZM95.79 176.55C94.8367 176.55 94.0667 176.44 93.48 176.22C92.8933 176.073 92.6 175.78 92.6 175.34C92.6 174.827 92.8933 174.423 93.48 174.13C94.0667 173.837 94.9833 173.58 96.23 173.36C99.0167 172.847 101.143 171.967 102.61 170.72C104.077 169.4 104.81 167.42 104.81 164.78V122.1C104.81 118.727 104.737 116.16 104.59 114.4C104.443 112.567 104.187 111.283 103.82 110.55C103.527 109.817 103.087 109.413 102.5 109.34C101.473 109.12 100.373 109.01 99.2 109.01C98.1 108.937 96.5967 108.9 94.69 108.9H89.52C87.76 108.9 86 109.267 84.24 110C82.5533 110.66 81.3067 111.723 80.5 113.19C80.28 113.557 79.9133 114.107 79.4 114.84C78.8867 115.5 78.3367 116.087 77.75 116.6C77.1633 117.113 76.5767 117.37 75.99 117.37C75.6967 117.37 75.4767 117.223 75.33 116.93C75.2567 116.637 75.22 116.307 75.22 115.94C75.22 115.207 75.4033 114.473 75.77 113.74C76.7967 111.613 77.53 109.743 77.97 108.13C78.4833 106.443 78.8867 104.463 79.18 102.19C79.3267 100.943 79.5833 100.21 79.95 99.99C80.39 99.77 80.7567 99.66 81.05 99.66C81.3433 99.66 81.7833 100.1 82.37 100.98C83.03 101.86 83.5067 102.593 83.8 103.18C84.24 103.913 85.23 104.463 86.77 104.83C88.3833 105.197 89.96 105.38 91.5 105.38H130.22C132.787 105.38 134.877 105.233 136.49 104.94C138.103 104.647 139.497 104.243 140.67 103.73C141.55 103.29 142.247 102.813 142.76 102.3C143.347 101.787 144.08 101.53 144.96 101.53C145.18 101.53 145.363 101.823 145.51 102.41C145.657 102.923 145.73 103.473 145.73 104.06C145.73 104.427 145.657 104.94 145.51 105.6C145.437 106.26 145.363 106.773 145.29 107.14C145.07 108.46 144.85 109.413 144.63 110C144.483 110.587 144.373 111.1 144.3 111.54C144.227 111.98 144.19 112.677 144.19 113.63V114.95C144.19 115.61 144.043 116.38 143.75 117.26C143.457 118.067 143.017 118.47 142.43 118.47C141.917 118.47 141.513 118.067 141.22 117.26C140.927 116.453 140.633 115.353 140.34 113.96C140.047 112.42 139.167 111.21 137.7 110.33C136.233 109.377 133.74 108.9 130.22 108.9H119.11C117.497 108.9 116.287 109.12 115.48 109.56C114.673 110 114.16 111.1 113.94 112.86C113.72 114.62 113.61 117.517 113.61 121.55V164.78C113.61 167.42 114.38 169.4 115.92 170.72C117.46 171.967 119.587 172.847 122.3 173.36C123.547 173.58 124.463 173.837 125.05 174.13C125.637 174.423 125.93 174.827 125.93 175.34C125.93 175.78 125.637 176.073 125.05 176.22C124.463 176.44 123.693 176.55 122.74 176.55C120.76 176.55 119.11 176.477 117.79 176.33C116.543 176.257 115.333 176.183 114.16 176.11C112.987 176.037 111.557 176 109.87 176C108.037 176 106.423 176.037 105.03 176.11C103.71 176.183 102.317 176.257 100.85 176.33C99.4567 176.477 97.77 176.55 95.79 176.55ZM153.201 176.55C152.248 176.55 151.478 176.44 150.891 176.22C150.305 176.073 150.011 175.78 150.011 175.34C150.011 174.46 151.221 173.8 153.641 173.36C156.428 172.847 158.481 172.003 159.801 170.83C161.121 169.657 161.781 167.75 161.781 165.11V115.61C161.781 112.97 161.231 111.1 160.131 110C159.105 108.9 157.198 108.093 154.411 107.58C153.165 107.36 152.248 107.067 151.661 106.7C151.075 106.333 150.781 105.893 150.781 105.38C150.781 104.94 151.075 104.647 151.661 104.5C152.248 104.28 153.018 104.17 153.971 104.17C156.758 104.17 159.105 104.207 161.011 104.28C162.991 104.353 164.898 104.427 166.731 104.5C168.638 104.5 170.875 104.5 173.441 104.5C175.861 104.5 178.391 104.5 181.031 104.5C183.745 104.427 186.238 104.39 188.511 104.39C191.005 104.317 193.095 104.28 194.781 104.28C196.541 104.207 197.568 104.17 197.861 104.17C198.228 104.17 198.631 104.243 199.071 104.39C199.511 104.537 199.768 104.793 199.841 105.16C200.208 107.213 200.575 109.267 200.941 111.32C201.308 113.3 201.491 115.023 201.491 116.49C201.491 117.15 201.308 117.59 200.941 117.81C200.648 118.03 200.318 118.14 199.951 118.14C199.585 118.14 199.328 118.067 199.181 117.92C199.035 117.7 198.888 117.407 198.741 117.04C198.375 115.793 198.008 114.62 197.641 113.52C197.275 112.347 196.835 111.503 196.321 110.99C195.295 109.817 194.158 109.047 192.911 108.68C191.665 108.24 190.345 108.02 188.951 108.02H174.541C173.955 108.02 173.148 108.35 172.121 109.01C171.095 109.67 170.581 110.513 170.581 111.54V134.86C170.581 135.52 170.765 136.107 171.131 136.62C171.571 137.06 172.048 137.28 172.561 137.28H183.451C185.578 137.28 187.045 136.913 187.851 136.18C188.658 135.373 189.318 133.943 189.831 131.89C190.271 130.277 190.931 129.47 191.811 129.47C192.105 129.47 192.398 129.617 192.691 129.91C193.058 130.203 193.241 130.643 193.241 131.23C193.241 131.523 193.205 132.183 193.131 133.21C193.131 134.237 193.095 135.3 193.021 136.4C192.948 137.5 192.911 138.343 192.911 138.93C192.911 139.663 192.911 140.653 192.911 141.9C192.985 143.073 193.021 144.21 193.021 145.31C193.095 146.41 193.131 147.107 193.131 147.4C193.131 147.913 193.058 148.353 192.911 148.72C192.838 149.087 192.581 149.27 192.141 149.27C191.041 149.27 190.198 148.097 189.611 145.75C189.171 144.063 188.585 142.817 187.851 142.01C187.118 141.203 186.018 140.8 184.551 140.8H174.321C173.075 140.8 172.121 140.983 171.461 141.35C170.875 141.643 170.581 142.413 170.581 143.66V164.78C170.581 167.567 171.168 169.51 172.341 170.61C173.515 171.637 175.348 172.15 177.841 172.15H185.981C188.328 172.15 190.271 172.04 191.811 171.82C193.425 171.527 194.818 171.013 195.991 170.28C197.165 169.473 198.191 168.41 199.071 167.09C200.025 165.77 201.088 164.01 202.261 161.81C202.481 161.37 202.738 161.003 203.031 160.71C203.325 160.417 203.655 160.307 204.021 160.38C204.388 160.453 204.681 160.637 204.901 160.93C205.121 161.15 205.231 161.48 205.231 161.92C205.231 162.58 205.048 163.753 204.681 165.44C204.315 167.053 203.838 168.74 203.251 170.5C202.738 172.26 202.261 173.653 201.821 174.68C201.601 175.193 201.381 175.633 201.161 176C201.015 176.367 200.721 176.55 200.281 176.55C196.761 176.55 193.498 176.513 190.491 176.44C187.485 176.367 184.625 176.293 181.911 176.22C179.198 176.147 176.521 176.073 173.881 176C171.315 175.927 168.638 175.89 165.851 175.89C164.238 175.89 162.845 175.927 161.671 176C160.498 176.147 159.288 176.257 158.041 176.33C156.795 176.477 155.181 176.55 153.201 176.55ZM278.101 178.31C276.048 178.31 274.105 178.127 272.271 177.76C270.438 177.467 268.751 176.88 267.211 176C265.671 175.12 264.241 173.91 262.921 172.37C261.161 170.17 259.475 168.08 257.861 166.1C256.248 164.047 254.525 161.7 252.691 159.06C250.931 156.42 248.768 153.047 246.201 148.94C245.101 147.107 243.525 145.677 241.471 144.65C239.858 143.843 238.245 143.293 236.631 143C235.091 142.633 233.808 142.413 232.781 142.34C232.195 142.267 231.755 142.45 231.461 142.89C231.241 143.33 231.131 143.88 231.131 144.54V163.9C231.131 166.247 231.681 168.3 232.781 170.06C233.881 171.747 235.788 172.847 238.501 173.36C239.748 173.58 240.665 173.837 241.251 174.13C241.838 174.423 242.131 174.827 242.131 175.34C242.131 175.78 241.838 176.073 241.251 176.22C240.665 176.44 239.895 176.55 238.941 176.55C236.961 176.55 235.421 176.477 234.321 176.33C233.295 176.183 232.341 176.073 231.461 176C230.655 175.853 229.555 175.78 228.161 175.78C226.328 175.78 224.678 175.853 223.211 176C221.818 176.073 220.388 176.183 218.921 176.33C217.528 176.477 215.841 176.55 213.861 176.55C212.908 176.55 212.138 176.44 211.551 176.22C210.965 176.073 210.671 175.78 210.671 175.34C210.671 174.46 211.881 173.8 214.301 173.36C217.088 172.847 219.105 172.003 220.351 170.83C221.671 169.657 222.331 167.713 222.331 165V118.14C222.331 115.353 222.185 113.263 221.891 111.87C221.671 110.403 221.085 109.377 220.131 108.79C219.251 108.203 217.748 107.8 215.621 107.58C214.375 107.433 213.458 107.177 212.871 106.81C212.285 106.37 211.991 105.893 211.991 105.38C211.991 104.94 212.285 104.647 212.871 104.5C213.458 104.28 214.228 104.17 215.181 104.17C217.161 104.17 218.628 104.17 219.581 104.17C220.608 104.17 221.561 104.207 222.441 104.28C223.321 104.28 224.495 104.28 225.961 104.28C227.355 104.28 228.601 104.243 229.701 104.17C230.801 104.023 232.011 103.913 233.331 103.84C234.725 103.767 236.485 103.73 238.611 103.73C246.678 103.73 252.801 105.233 256.981 108.24C261.235 111.247 263.361 115.757 263.361 121.77C263.361 125.07 262.701 127.93 261.381 130.35C260.061 132.697 258.411 134.677 256.431 136.29C254.451 137.903 252.435 139.223 250.381 140.25C250.088 140.323 249.941 140.507 249.941 140.8C250.015 141.02 250.161 141.313 250.381 141.68C252.655 145.127 254.818 148.39 256.871 151.47C258.998 154.55 261.308 157.557 263.801 160.49C266.295 163.423 269.265 166.467 272.711 169.62C274.618 171.307 276.561 172.333 278.541 172.7C280.521 173.067 282.795 173.25 285.361 173.25C286.461 173.25 287.011 173.653 287.011 174.46C287.011 175.56 286.461 176.367 285.361 176.88C284.261 177.467 283.015 177.833 281.621 177.98C280.228 178.2 279.055 178.31 278.101 178.31ZM236.961 139.81C240.335 139.81 243.231 139.04 245.651 137.5C248.145 135.96 250.051 133.943 251.371 131.45C252.765 128.957 253.461 126.317 253.461 123.53C253.461 120.523 253.058 117.773 252.251 115.28C251.518 112.787 249.978 110.807 247.631 109.34C245.358 107.8 241.911 107.03 237.291 107.03C234.945 107.03 233.405 107.8 232.671 109.34C231.938 110.807 231.498 113.447 231.351 117.26C231.278 119.093 231.205 121.587 231.131 124.74C231.131 127.82 231.131 131.56 231.131 135.96C231.131 137.793 231.645 138.893 232.671 139.26C233.698 139.627 235.128 139.81 236.961 139.81ZM359.929 177.87C359.269 177.87 357.949 177.32 355.969 176.22C354.063 175.12 352.229 173.36 350.469 170.94C350.176 170.573 349.259 169.473 347.719 167.64C346.253 165.807 344.346 163.533 341.999 160.82C339.726 158.033 337.233 155.027 334.519 151.8C331.806 148.573 329.093 145.347 326.379 142.12C323.666 138.893 321.136 135.923 318.789 133.21C316.443 130.423 314.463 128.113 312.849 126.28C311.309 124.373 310.356 123.2 309.989 122.76C309.476 122.1 309.036 121.66 308.669 121.44C308.303 121.147 307.973 121 307.679 121C307.313 121 307.056 121.293 306.909 121.88C306.763 122.393 306.689 122.87 306.689 123.31C306.616 126.903 306.543 131.047 306.469 135.74C306.396 140.433 306.323 145.273 306.249 150.26C306.176 155.247 306.139 160.013 306.139 164.56C306.139 166.54 306.616 168.373 307.569 170.06C308.596 171.747 310.466 172.847 313.179 173.36C314.426 173.58 315.343 173.837 315.929 174.13C316.516 174.423 316.809 174.827 316.809 175.34C316.809 175.78 316.516 176.073 315.929 176.22C315.343 176.44 314.573 176.55 313.619 176.55C311.639 176.55 310.136 176.477 309.109 176.33C308.156 176.257 307.276 176.183 306.469 176.11C305.736 176.037 304.673 176 303.279 176C301.959 176 300.933 176.037 300.199 176.11C299.466 176.183 298.623 176.257 297.669 176.33C296.716 176.477 295.249 176.55 293.269 176.55C292.316 176.55 291.546 176.44 290.959 176.22C290.373 176.073 290.079 175.78 290.079 175.34C290.079 174.827 290.373 174.423 290.959 174.13C291.546 173.837 292.463 173.543 293.709 173.25C295.836 172.663 297.376 171.6 298.329 170.06C299.283 168.447 299.869 166.503 300.089 164.23C300.383 161.443 300.676 157.777 300.969 153.23C301.263 148.61 301.519 143.477 301.739 137.83C301.959 132.11 302.069 126.243 302.069 120.23C302.069 116.343 301.043 113.557 298.989 111.87C297.009 110.183 294.406 108.827 291.179 107.8C290.886 107.653 290.226 107.36 289.199 106.92C288.246 106.407 287.769 105.82 287.769 105.16C287.769 104.5 288.099 104.097 288.759 103.95C289.419 103.73 289.933 103.62 290.299 103.62C292.426 103.693 294.149 103.767 295.469 103.84C296.789 103.84 297.963 103.877 298.989 103.95C300.016 104.023 301.153 104.097 302.399 104.17C303.646 104.17 305.259 104.17 307.239 104.17C307.899 104.17 308.413 104.353 308.779 104.72C309.146 105.087 309.513 105.527 309.879 106.04C310.173 106.48 311.126 107.727 312.739 109.78C314.426 111.76 316.479 114.29 318.899 117.37C321.393 120.377 324.106 123.677 327.039 127.27C329.973 130.79 332.906 134.347 335.839 137.94C338.773 141.46 341.486 144.76 343.979 147.84C346.473 150.847 348.526 153.34 350.139 155.32C351.826 157.3 352.816 158.473 353.109 158.84C353.403 159.133 353.806 159.573 354.319 160.16C354.906 160.747 355.419 161.04 355.859 161.04C356.519 161.04 356.886 160.27 356.959 158.73C356.959 157.703 356.959 155.76 356.959 152.9C357.033 149.967 357.069 146.447 357.069 142.34C357.143 138.16 357.179 133.65 357.179 128.81C357.179 123.97 357.179 119.02 357.179 113.96C357.106 112.493 356.336 111.173 354.869 110C353.403 108.827 352.046 108.13 350.799 107.91C349.553 107.69 348.416 107.397 347.389 107.03C346.363 106.663 345.849 106.223 345.849 105.71C345.849 105.27 346.363 104.977 347.389 104.83C348.416 104.61 349.406 104.5 350.359 104.5C351.093 104.5 351.789 104.5 352.449 104.5C353.183 104.5 353.879 104.5 354.539 104.5C355.273 104.5 355.969 104.5 356.629 104.5C358.389 104.5 359.783 104.5 360.809 104.5C361.836 104.427 362.936 104.353 364.109 104.28C365.356 104.207 367.079 104.17 369.279 104.17C370.233 104.17 371.003 104.28 371.589 104.5C372.176 104.647 372.469 104.94 372.469 105.38C372.469 106.407 371.259 107.14 368.839 107.58C366.126 108.093 364.329 108.753 363.449 109.56C362.569 110.367 362.056 111.687 361.909 113.52C361.909 113.887 361.873 115.317 361.799 117.81C361.799 120.303 361.799 123.457 361.799 127.27C361.799 131.083 361.763 135.19 361.689 139.59C361.689 143.99 361.689 148.39 361.689 152.79C361.689 157.117 361.689 161.003 361.689 164.45C361.689 166.21 361.726 167.823 361.799 169.29C361.946 170.683 362.056 171.893 362.129 172.92C362.203 173.873 362.239 174.607 362.239 175.12C362.239 176.293 361.983 177.027 361.469 177.32C361.029 177.687 360.516 177.87 359.929 177.87ZM376.538 176.55C375.585 176.55 374.815 176.403 374.228 176.11C373.642 175.89 373.348 175.56 373.348 175.12C373.348 174.607 373.642 174.167 374.228 173.8C374.888 173.36 375.805 172.957 376.978 172.59C378.885 172.003 380.645 171.123 382.258 169.95C383.872 168.777 385.265 166.833 386.438 164.12C388.492 159.427 390.362 155.027 392.048 150.92C393.808 146.813 395.458 142.78 396.998 138.82C398.538 134.86 400.115 130.753 401.728 126.5C403.415 122.173 405.175 117.48 407.008 112.42C407.375 111.393 407.705 110.367 407.998 109.34C408.292 108.313 408.475 107.213 408.548 106.04C409.208 105.82 409.868 105.6 410.528 105.38C411.188 105.16 411.848 104.83 412.508 104.39C413.168 103.95 413.608 103.29 413.828 102.41C414.122 101.53 414.378 100.943 414.598 100.65C414.672 100.577 414.745 100.54 414.818 100.54C414.965 100.54 415.075 100.613 415.148 100.76C415.295 101.053 415.405 101.42 415.478 101.86C415.625 102.3 415.772 102.74 415.918 103.18C417.678 108.753 419.512 114.437 421.418 120.23C423.325 126.023 425.158 131.633 426.918 137.06C428.752 142.413 430.402 147.253 431.868 151.58C433.408 155.833 434.618 159.28 435.498 161.92C436.525 164.853 437.625 167.053 438.798 168.52C439.972 169.987 441.182 171.013 442.428 171.6C443.748 172.187 445.142 172.627 446.608 172.92C447.855 173.14 448.772 173.507 449.358 174.02C449.945 174.46 450.238 174.937 450.238 175.45C450.238 175.89 449.945 176.183 449.358 176.33C448.772 176.477 448.002 176.55 447.048 176.55C446.022 176.55 444.628 176.477 442.868 176.33C441.108 176.257 439.238 176.147 437.258 176C435.278 175.927 433.445 175.89 431.758 175.89C430.365 175.89 428.935 175.89 427.468 175.89C426.002 175.89 424.645 175.927 423.398 176C422.152 176 421.088 176 420.208 176C419.255 176 418.485 175.89 417.898 175.67C417.312 175.45 417.018 175.12 417.018 174.68C417.018 174.167 417.385 173.727 418.118 173.36C418.852 172.993 419.695 172.737 420.648 172.59C423.068 172.223 424.792 171.6 425.818 170.72C426.845 169.84 427.358 168.813 427.358 167.64C427.358 166.54 427.102 164.963 426.588 162.91C426.148 160.783 425.598 158.547 424.938 156.2C424.278 153.78 423.655 151.653 423.068 149.82C422.922 149.233 422.628 148.903 422.188 148.83C421.822 148.683 421.125 148.61 420.098 148.61H399.308C399.015 148.61 398.685 148.757 398.318 149.05C398.025 149.27 397.732 149.783 397.438 150.59C397.218 151.323 396.852 152.497 396.338 154.11C395.825 155.65 395.312 157.3 394.798 159.06C394.285 160.82 393.845 162.397 393.478 163.79C393.112 165.183 392.928 166.063 392.928 166.43C392.928 168.043 393.552 169.4 394.798 170.5C396.045 171.527 397.548 172.26 399.308 172.7C401.728 173.36 402.938 174.093 402.938 174.9C402.938 175.34 402.645 175.67 402.058 175.89C401.472 176.037 400.702 176.11 399.748 176.11C398.795 176.11 397.402 176.073 395.568 176C393.735 175.927 391.792 175.89 389.738 175.89C387.318 175.89 384.972 176 382.698 176.22C380.425 176.44 378.372 176.55 376.538 176.55ZM402.278 144.98H419.328C420.355 144.98 420.868 144.797 420.868 144.43C420.868 144.283 420.832 144.137 420.758 143.99C420.758 143.77 420.722 143.55 420.648 143.33L412.068 116.49C411.628 115.17 411.298 114.51 411.078 114.51C410.932 114.51 410.638 115.133 410.198 116.38L400.188 143.33C400.042 143.77 399.968 144.063 399.968 144.21C399.968 144.577 400.152 144.797 400.518 144.87C400.958 144.943 401.545 144.98 402.278 144.98ZM455.78 176.55C454.827 176.55 454.057 176.403 453.47 176.11C452.957 175.89 452.7 175.597 452.7 175.23C452.7 174.57 453.03 174.13 453.69 173.91C454.424 173.617 454.9 173.433 455.12 173.36C457.98 172.773 460.18 171.93 461.72 170.83C463.26 169.657 464.03 167.86 464.03 165.44V114.4C464.03 112.64 463.847 111.357 463.48 110.55C463.114 109.67 462.454 109.047 461.5 108.68C460.547 108.24 459.154 107.873 457.32 107.58C454.9 107.14 453.69 106.407 453.69 105.38C453.69 104.94 453.984 104.647 454.57 104.5C455.157 104.28 455.927 104.17 456.88 104.17C458.86 104.17 460.437 104.207 461.61 104.28C462.857 104.353 464.03 104.427 465.13 104.5C466.23 104.5 467.587 104.5 469.2 104.5C471.034 104.5 472.61 104.5 473.93 104.5C475.25 104.427 476.607 104.353 478 104.28C479.394 104.207 481.08 104.17 483.06 104.17C484.014 104.17 484.784 104.28 485.37 104.5C485.957 104.647 486.25 104.94 486.25 105.38C486.25 105.893 485.957 106.333 485.37 106.7C484.784 107.067 483.867 107.36 482.62 107.58C479.907 108.093 477.597 108.717 475.69 109.45C473.784 110.11 472.83 111.503 472.83 113.63V165.44C472.83 167.713 473.344 169.4 474.37 170.5C475.397 171.6 477.707 172.15 481.3 172.15H494.94C496.92 172.15 498.644 171.857 500.11 171.27C501.65 170.61 502.787 169.95 503.52 169.29C504.987 168.043 506.05 166.943 506.71 165.99C507.444 164.963 508.287 163.46 509.24 161.48C509.387 161.04 509.68 160.38 510.12 159.5C510.634 158.62 511.147 158.18 511.66 158.18C512.1 158.18 512.43 158.4 512.65 158.84C512.87 159.28 512.98 159.72 512.98 160.16C512.98 160.233 512.944 160.343 512.87 160.49C512.87 160.563 512.87 160.637 512.87 160.71C512.357 162.617 511.88 164.34 511.44 165.88C511.074 167.42 510.744 168.887 510.45 170.28C510.23 171.673 510.047 173.14 509.9 174.68C509.827 175.193 509.68 175.633 509.46 176C509.314 176.367 508.947 176.55 508.36 176.55C504.694 176.55 501.174 176.513 497.8 176.44C494.427 176.367 491.164 176.293 488.01 176.22C484.93 176.22 481.96 176.183 479.1 176.11C476.24 176.037 473.417 176 470.63 176C468.797 176 466.707 176.037 464.36 176.11C462.087 176.183 460.07 176.257 458.31 176.33C456.624 176.477 455.78 176.55 455.78 176.55Z" fill="#2E4152"/>
<g filter="url(#filter0_d_486_86)">
<path d="M321 66H511V72H321V66Z" fill="#2E4152"/>
</g>
<g filter="url(#filter1_d_486_86)">
<path d="M6.25854 65.5604H196.259V71.6121H6.25854V65.5604Z" fill="#2E4152"/>
</g>
<g filter="url(#filter2_d_486_86)">
<path d="M260.81 28.2414C263.627 28.2547 268.519 27.7376 270.868 26.184C273.217 24.6305 275.053 22.4152 276.143 19.8184C277.233 17.2216 277.529 14.3598 276.992 11.5951C276.456 8.83029 275.112 6.28664 273.13 4.28579C271.148 2.28493 268.617 0.916742 265.857 0.354226C263.098 -0.20829 260.233 0.0601348 257.626 1.12556C255.019 2.19098 252.787 4.00555 251.211 6.3398C249.635 8.67404 248.787 11.4231 248.774 14.2394L251.809 14.2538C251.82 12.0379 252.487 9.87479 253.727 8.03814C254.967 6.20148 256.723 4.77372 258.775 3.93541C260.826 3.09711 263.08 2.8859 265.251 3.32851C267.422 3.77111 269.414 4.84765 270.973 6.42198C272.533 7.99631 273.59 9.99773 274.012 12.1731C274.434 14.3486 274.202 16.6003 273.344 18.6435C272.486 20.6868 271.042 22.4298 269.194 23.6522C267.345 24.8745 263.026 25.226 260.81 25.2155L260.81 28.2414Z" fill="#2E4152"/>
</g>
<g filter="url(#filter3_d_486_86)">
<path d="M264.845 26.2241H260.81V46.3965H264.845V35.7795V26.2241Z" fill="#2E4152"/>
</g>
<g filter="url(#filter4_d_486_86)">
<path d="M299.138 81.194C299.138 71.6976 295.206 62.5902 288.207 55.8753C281.209 49.1603 271.717 45.3879 261.819 45.3879C251.921 45.3879 242.429 49.1603 235.43 55.8753C228.432 62.5902 224.5 71.6976 224.5 81.194H232.968C232.968 73.8524 236.008 66.8116 241.418 61.6203C246.829 56.4291 254.167 53.5127 261.819 53.5127C269.471 53.5127 276.809 56.4291 282.22 61.6204C287.63 66.8116 290.67 73.8524 290.67 81.194H299.138Z" fill="#2E4152"/>
</g>
<defs>
<filter id="filter0_d_486_86" x="317" y="66" width="198" height="14" filterUnits="userSpaceOnUse" color-interpolation-filters="sRGB">
<feFlood flood-opacity="0" result="BackgroundImageFix"/>
<feColorMatrix in="SourceAlpha" type="matrix" values="0 0 0 0 0 0 0 0 0 0 0 0 0 0 0 0 0 0 127 0" result="hardAlpha"/>
<feOffset dy="4"/>
<feGaussianBlur stdDeviation="2"/>
<feComposite in2="hardAlpha" operator="out"/>
<feColorMatrix type="matrix" values="0 0 0 0 0 0 0 0 0 0 0 0 0 0 0 0 0 0 0.25 0"/>
<feBlend mode="normal" in2="BackgroundImageFix" result="effect1_dropShadow_486_86"/>
<feBlend mode="normal" in="SourceGraphic" in2="effect1_dropShadow_486_86" result="shape"/>
</filter>
<filter id="filter1_d_486_86" x="2.25854" y="65.5604" width="198" height="14.0517" filterUnits="userSpaceOnUse" color-interpolation-filters="sRGB">
<feFlood flood-opacity="0" result="BackgroundImageFix"/>
<feColorMatrix in="SourceAlpha" type="matrix" values="0 0 0 0 0 0 0 0 0 0 0 0 0 0 0 0 0 0 127 0" result="hardAlpha"/>
<feOffset dy="4"/>
<feGaussianBlur stdDeviation="2"/>
<feComposite in2="hardAlpha" operator="out"/>
<feColorMatrix type="matrix" values="0 0 0 0 0 0 0 0 0 0 0 0 0 0 0 0 0 0 0.25 0"/>
<feBlend mode="normal" in2="BackgroundImageFix" result="effect1_dropShadow_486_86"/>
<feBlend mode="normal" in="SourceGraphic" in2="effect1_dropShadow_486_86" result="shape"/>
</filter>
<filter id="filter2_d_486_86" x="244.774" y="0.0673218" width="36.479" height="36.1743" filterUnits="userSpaceOnUse" color-interpolation-filters="sRGB">
<feFlood flood-opacity="0" result="BackgroundImageFix"/>
<feColorMatrix in="SourceAlpha" type="matrix" values="0 0 0 0 0 0 0 0 0 0 0 0 0 0 0 0 0 0 127 0" result="hardAlpha"/>
<feOffset dy="4"/>
<feGaussianBlur stdDeviation="2"/>
<feComposite in2="hardAlpha" operator="out"/>
<feColorMatrix type="matrix" values="0 0 0 0 0 0 0 0 0 0 0 0 0 0 0 0 0 0 0.25 0"/>
<feBlend mode="normal" in2="BackgroundImageFix" result="effect1_dropShadow_486_86"/>
<feBlend mode="normal" in="SourceGraphic" in2="effect1_dropShadow_486_86" result="shape"/>
</filter>
<filter id="filter3_d_486_86" x="256.81" y="26.2241" width="12.0344" height="28.1724" filterUnits="userSpaceOnUse" color-interpolation-filters="sRGB">
<feFlood flood-opacity="0" result="BackgroundImageFix"/>
<feColorMatrix in="SourceAlpha" type="matrix" values="0 0 0 0 0 0 0 0 0 0 0 0 0 0 0 0 0 0 127 0" result="hardAlpha"/>
<feOffset dy="4"/>
<feGaussianBlur stdDeviation="2"/>
<feComposite in2="hardAlpha" operator="out"/>
<feColorMatrix type="matrix" values="0 0 0 0 0 0 0 0 0 0 0 0 0 0 0 0 0 0 0.25 0"/>
<feBlend mode="normal" in2="BackgroundImageFix" result="effect1_dropShadow_486_86"/>
<feBlend mode="normal" in="SourceGraphic" in2="effect1_dropShadow_486_86" result="shape"/>
</filter>
<filter id="filter4_d_486_86" x="220.5" y="45.3879" width="82.6379" height="43.806" filterUnits="userSpaceOnUse" color-interpolation-filters="sRGB">
<feFlood flood-opacity="0" result="BackgroundImageFix"/>
<feColorMatrix in="SourceAlpha" type="matrix" values="0 0 0 0 0 0 0 0 0 0 0 0 0 0 0 0 0 0 127 0" result="hardAlpha"/>
<feOffset dy="4"/>
<feGaussianBlur stdDeviation="2"/>
<feComposite in2="hardAlpha" operator="out"/>
<feColorMatrix type="matrix" values="0 0 0 0 0 0 0 0 0 0 0 0 0 0 0 0 0 0 0.25 0"/>
<feBlend mode="normal" in2="BackgroundImageFix" result="effect1_dropShadow_486_86"/>
<feBlend mode="normal" in="SourceGraphic" in2="effect1_dropShadow_486_86" result="shape"/>
</filter>
</defs>
</svg>
